<?xml version="1.0" encoding="UTF-8"?>
<!DOCTYPE svg PUBLIC "-//W3C//DTD SVG 1.1//EN" "http://www.w3.org/Graphics/SVG/1.1/DTD/svg11.dtd">
<svg xmlns="http://www.w3.org/2000/svg" version="1.1" width="622px" height="400px" style="shape-rendering:geometricPrecision; text-rendering:geometricPrecision; image-rendering:optimizeQuality; fill-rule:evenodd; clip-rule:evenodd" xmlns:xlink="http://www.w3.org/1999/xlink">
<g><path style="opacity:0.816" fill="#8d5689" d="M 520.5,46.5 C 520.5,46.8333 520.5,47.1667 520.5,47.5C 514.171,47.8995 507.838,48.2329 501.5,48.5C 507.594,46.9057 513.928,46.239 520.5,46.5 Z"/></g>
<g><path style="opacity:0.263" fill="#7e6a85" d="M 565.5,47.5 C 570.049,47.6245 574.382,48.2911 578.5,49.5C 576.167,49.5 573.833,49.5 571.5,49.5C 569.374,48.9518 567.374,48.2852 565.5,47.5 Z"/></g>
<g><path style="opacity:0.999" fill="#9a448c" d="M 500.5,48.5 C 500.67,49.8221 500.337,50.9887 499.5,52C 497.564,52.813 495.564,53.313 493.5,53.5C 491.599,53.4332 489.766,53.7665 488,54.5C 487.055,54.0946 486.388,53.428 486,52.5C 481.541,53.5956 477.041,54.5956 472.5,55.5C 481.418,51.9372 490.751,49.6039 500.5,48.5 Z"/></g>
<g><path style="opacity:1" fill="#7a368c" d="M 553.5,46.5 C 557.548,46.3946 561.548,46.7279 565.5,47.5C 567.374,48.2852 569.374,48.9518 571.5,49.5C 569,55.3177 566.666,61.3177 564.5,67.5C 561.86,70.6386 559.86,74.1386 558.5,78C 559.252,78.6708 559.586,79.5041 559.5,80.5C 554.833,85.8333 549.833,90.8333 544.5,95.5C 543.094,95.9731 542.427,96.9731 542.5,98.5C 542.5,99.1667 542.167,99.5 541.5,99.5C 539.738,100.262 538.738,101.596 538.5,103.5C 533.677,109.147 529.343,115.147 525.5,121.5C 527.144,113.879 530.644,107.212 536,101.5C 541.866,88.1748 547.866,74.8414 554,61.5C 555.29,57.1008 556.79,52.7675 558.5,48.5C 556.709,47.8302 555.042,47.1635 553.5,46.5 Z"/></g>
<g><path style="opacity:1" fill="#743b8d" d="M 571.5,49.5 C 573.833,49.5 576.167,49.5 578.5,49.5C 582.64,49.5291 586.64,50.1958 590.5,51.5C 594.459,52.867 595.459,55.5337 593.5,59.5C 581.231,64.9688 569.897,71.9688 559.5,80.5C 559.586,79.5041 559.252,78.6708 558.5,78C 559.86,74.1386 561.86,70.6386 564.5,67.5C 566.666,61.3177 569,55.3177 571.5,49.5 Z"/></g>
<g><path style="opacity:0.993" fill="#74548a" d="M 590.5,51.5 C 594.884,52.0101 599.218,52.8434 603.5,54C 603.957,54.414 604.291,54.914 604.5,55.5C 600.972,57.2313 597.306,58.5646 593.5,59.5C 595.459,55.5337 594.459,52.867 590.5,51.5 Z"/></g>
<g><path style="opacity:0.51" fill="#926384" d="M 454.5,63.5 C 454.027,64.9063 453.027,65.573 451.5,65.5C 451.973,64.0937 452.973,63.427 454.5,63.5 Z"/></g>
<g><path style="opacity:0.455" fill="#926484" d="M 449.5,66.5 C 449.027,67.9063 448.027,68.573 446.5,68.5C 446.973,67.0937 447.973,66.427 449.5,66.5 Z"/></g>
<g><path style="opacity:0.506" fill="#966284" d="M 437.5,75.5 C 434.167,79.5 430.5,83.1667 426.5,86.5C 429.167,81.8333 432.833,78.1667 437.5,75.5 Z"/></g>
<g><path style="opacity:1" fill="#a02d89" d="M 493.5,53.5 C 492.739,54.3909 491.739,55.0576 490.5,55.5C 489.614,56.325 489.281,57.325 489.5,58.5C 488.5,58.5 487.5,58.5 486.5,58.5C 486.663,60.8568 486.497,63.1902 486,65.5C 483.694,68.4139 482.36,71.7472 482,75.5C 481,77.1667 479.667,78.5 478,79.5C 477.667,81.1667 477.333,82.8333 477,84.5C 473.5,90.6149 470,96.6149 466.5,102.5C 463.008,109.486 459.008,116.153 454.5,122.5C 454.5,120.833 454.5,119.167 454.5,117.5C 451.159,118.005 447.826,118.172 444.5,118C 448.63,113.207 451.797,107.707 454,101.5C 455.655,98.847 457.655,96.5136 460,94.5C 461.226,89.5479 463.393,85.0479 466.5,81C 462.636,81.4226 458.802,82.2559 455,83.5C 454.67,80.134 455.003,76.8006 456,73.5C 461.167,69.6667 466.333,65.8333 471.5,62C 470.941,61.2753 470.608,60.4419 470.5,59.5C 471.225,58.1331 471.892,56.7997 472.5,55.5C 477.041,54.5956 481.541,53.5956 486,52.5C 486.388,53.428 487.055,54.0946 488,54.5C 489.766,53.7665 491.599,53.4332 493.5,53.5 Z"/></g>
<g><path style="opacity:1" fill="#942e89" d="M 520.5,47.5 C 522.199,47.3398 523.866,47.5065 525.5,48C 522.487,48.5022 519.487,49.0022 516.5,49.5C 515.81,53.8382 514.977,58.1715 514,62.5C 509.557,71.2847 505.557,80.2847 502,89.5C 501,91.1667 499.667,92.5 498,93.5C 496.793,98.0296 495.127,102.363 493,106.5C 489.792,112.136 486.292,117.469 482.5,122.5C 482.5,122.833 482.5,123.167 482.5,123.5C 479.833,123.833 477.167,124.167 474.5,124.5C 474.656,121.934 474.322,119.434 473.5,117C 474.632,114.479 475.966,112.145 477.5,110C 475.153,109.666 472.819,109.833 470.5,110.5C 470.817,107.428 470.484,104.428 469.5,101.5C 468.583,102.127 467.583,102.461 466.5,102.5C 470,96.6149 473.5,90.6149 477,84.5C 477.333,82.8333 477.667,81.1667 478,79.5C 479.667,78.5 481,77.1667 482,75.5C 482.36,71.7472 483.694,68.4139 486,65.5C 486.497,63.1902 486.663,60.8568 486.5,58.5C 487.5,58.5 488.5,58.5 489.5,58.5C 489.281,57.325 489.614,56.325 490.5,55.5C 491.739,55.0576 492.739,54.3909 493.5,53.5C 495.564,53.313 497.564,52.813 499.5,52C 500.337,50.9887 500.67,49.8221 500.5,48.5C 500.833,48.5 501.167,48.5 501.5,48.5C 507.838,48.2329 514.171,47.8995 520.5,47.5 Z"/></g>
<g><path style="opacity:1" fill="#bc2f8c" d="M 420.5,206.5 C 420.173,215.682 420.507,224.682 421.5,233.5C 421.5,243.5 421.5,253.5 421.5,263.5C 421.477,271.183 421.143,278.85 420.5,286.5C 420.354,290.387 419.687,294.054 418.5,297.5C 418.667,231.832 418.5,166.166 418,100.5C 416.801,102.576 415.301,104.242 413.5,105.5C 414.079,102.669 415.412,100.336 417.5,98.5C 418.906,98.0269 419.573,97.0269 419.5,95.5C 419.738,93.5956 420.738,92.2623 422.5,91.5C 423.906,91.0269 424.573,90.0269 424.5,88.5C 424.833,87.5 425.5,86.8333 426.5,86.5C 430.5,83.1667 434.167,79.5 437.5,75.5C 439.628,74.0427 441.962,73.0427 444.5,72.5C 444.665,76.1817 444.499,79.8484 444,83.5C 428.061,108.672 420.061,136.338 420,166.5C 419.173,180.006 419.34,193.34 420.5,206.5 Z"/></g>
<g><path style="opacity:1" fill="#8b2d88" d="M 520.5,47.5 C 520.5,47.1667 520.5,46.8333 520.5,46.5C 525.196,46.6706 529.863,47.1706 534.5,48C 531.203,47.8162 529.203,49.3162 528.5,52.5C 527.635,57.3394 526.302,62.0061 524.5,66.5C 521.923,68.9202 520.923,71.9202 521.5,75.5C 520.5,75.5 519.5,75.5 518.5,75.5C 518.444,79.7584 517.111,83.5917 514.5,87C 514.667,87.8333 514.833,88.6667 515,89.5C 518.633,88.5044 522.299,87.5044 526,86.5C 526.5,86.8333 527,87.1667 527.5,87.5C 525.699,90.7103 524.199,94.0437 523,97.5C 522,99.1667 520.667,100.5 519,101.5C 517.505,105.989 515.339,110.155 512.5,114C 513.233,115.766 513.567,117.599 513.5,119.5C 511.883,120.038 510.216,120.371 508.5,120.5C 503.584,121.883 498.584,122.883 493.5,123.5C 493.719,122.325 493.386,121.325 492.5,120.5C 489.292,121.802 485.959,122.469 482.5,122.5C 486.292,117.469 489.792,112.136 493,106.5C 495.127,102.363 496.793,98.0296 498,93.5C 499.667,92.5 501,91.1667 502,89.5C 505.557,80.2847 509.557,71.2847 514,62.5C 514.977,58.1715 515.81,53.8382 516.5,49.5C 519.487,49.0022 522.487,48.5022 525.5,48C 523.866,47.5065 522.199,47.3398 520.5,47.5 Z"/></g>
<g><path style="opacity:1" fill="#813189" d="M 520.5,46.5 C 531.353,45.2484 542.353,45.2484 553.5,46.5C 555.042,47.1635 556.709,47.8302 558.5,48.5C 556.79,52.7675 555.29,57.1008 554,61.5C 547.866,74.8414 541.866,88.1748 536,101.5C 530.644,107.212 527.144,113.879 525.5,121.5C 524.404,124.032 523.071,126.365 521.5,128.5C 521.785,126.712 521.452,125.045 520.5,123.5C 518.591,124.348 516.591,124.682 514.5,124.5C 514.784,122.585 514.451,120.919 513.5,119.5C 513.567,117.599 513.233,115.766 512.5,114C 515.339,110.155 517.505,105.989 519,101.5C 520.667,100.5 522,99.1667 523,97.5C 524.199,94.0437 525.699,90.7103 527.5,87.5C 527,87.1667 526.5,86.8333 526,86.5C 522.299,87.5044 518.633,88.5044 515,89.5C 514.833,88.6667 514.667,87.8333 514.5,87C 517.111,83.5917 518.444,79.7584 518.5,75.5C 519.5,75.5 520.5,75.5 521.5,75.5C 520.923,71.9202 521.923,68.9202 524.5,66.5C 526.302,62.0061 527.635,57.3394 528.5,52.5C 529.203,49.3162 531.203,47.8162 534.5,48C 529.863,47.1706 525.196,46.6706 520.5,46.5 Z"/></g>
<g><path style="opacity:1" fill="#f9c714" d="M 301.5,89.5 C 308.728,89.6877 315.395,91.6877 321.5,95.5C 321.821,97.0481 322.821,97.7148 324.5,97.5C 324.821,99.0481 325.821,99.7148 327.5,99.5C 328.035,101.446 329.368,102.446 331.5,102.5C 333.833,104.167 335.833,106.167 337.5,108.5C 337.511,110.017 338.177,111.184 339.5,112C 338.906,112.464 338.239,112.631 337.5,112.5C 331.897,111.817 326.897,113.151 322.5,116.5C 300.49,116.833 278.49,116.5 256.5,115.5C 257.792,113.333 258.625,111 259,108.5C 265.853,101.137 273.687,95.1373 282.5,90.5C 288.775,89.582 295.108,89.2487 301.5,89.5 Z"/></g>
<g><path style="opacity:0.306" fill="#966383" d="M 424.5,88.5 C 424.573,90.0269 423.906,91.0269 422.5,91.5C 422.427,89.9731 423.094,88.9731 424.5,88.5 Z"/></g>
<g><path style="opacity:1" fill="#a52a84" d="M 472.5,55.5 C 471.892,56.7997 471.225,58.1331 470.5,59.5C 470.608,60.4419 470.941,61.2753 471.5,62C 466.333,65.8333 461.167,69.6667 456,73.5C 455.003,76.8006 454.67,80.134 455,83.5C 458.802,82.2559 462.636,81.4226 466.5,81C 463.393,85.0479 461.226,89.5479 460,94.5C 457.655,96.5136 455.655,98.847 454,101.5C 451.797,107.707 448.63,113.207 444.5,118C 447.826,118.172 451.159,118.005 454.5,117.5C 454.5,119.167 454.5,120.833 454.5,122.5C 450.983,129.028 446.649,135.028 441.5,140.5C 440.571,141.689 440.238,143.022 440.5,144.5C 439.5,144.5 438.5,144.5 437.5,144.5C 437.473,146.199 436.806,147.533 435.5,148.5C 430.511,154.663 425.678,160.997 421,167.5C 420.5,180.496 420.333,193.496 420.5,206.5C 419.34,193.34 419.173,180.006 420,166.5C 420.061,136.338 428.061,108.672 444,83.5C 444.499,79.8484 444.665,76.1817 444.5,72.5C 441.962,73.0427 439.628,74.0427 437.5,75.5C 439.949,72.4442 442.949,70.1108 446.5,68.5C 448.027,68.573 449.027,67.9063 449.5,66.5C 449.842,65.6618 450.508,65.3284 451.5,65.5C 453.027,65.573 454.027,64.9063 454.5,63.5C 460.018,59.8776 466.018,57.211 472.5,55.5 Z"/></g>
<g><path style="opacity:0.808" fill="#bca151" d="M 321.5,95.5 C 322.71,95.9321 323.71,96.5987 324.5,97.5C 322.821,97.7148 321.821,97.0481 321.5,95.5 Z"/></g>
<g><path style="opacity:0.012" fill="#837586" d="M 544.5,95.5 C 544.573,97.0269 543.906,98.0269 542.5,98.5C 542.427,96.9731 543.094,95.9731 544.5,95.5 Z"/></g>
<g><path style="opacity:0.192" fill="#926983" d="M 419.5,95.5 C 419.573,97.0269 418.906,98.0269 417.5,98.5C 417.427,96.9731 418.094,95.9731 419.5,95.5 Z"/></g>
<g><path style="opacity:0.882" fill="#c2a54d" d="M 324.5,97.5 C 325.71,97.9321 326.71,98.5987 327.5,99.5C 325.821,99.7148 324.821,99.0481 324.5,97.5 Z"/></g>
<g><path style="opacity:1" fill="#c42d8c" d="M 418.5,297.5 C 418.252,301.906 417.585,306.24 416.5,310.5C 414.153,318.194 410.486,325.194 405.5,331.5C 405.832,264.998 405.499,198.665 404.5,132.5C 404.5,131.5 404.5,130.5 404.5,129.5C 405.924,127.485 406.59,125.152 406.5,122.5C 406.5,122.167 406.5,121.833 406.5,121.5C 408.834,119.824 409.834,117.491 409.5,114.5C 410.075,111.088 411.408,108.088 413.5,105.5C 415.301,104.242 416.801,102.576 418,100.5C 418.5,166.166 418.667,231.832 418.5,297.5 Z"/></g>
<g><path style="opacity:0.004" fill="#8a808c" d="M 541.5,99.5 C 541.262,101.404 540.262,102.738 538.5,103.5C 538.738,101.596 539.738,100.262 541.5,99.5 Z"/></g>
<g><path style="opacity:0.392" fill="#b09a59" d="M 327.5,99.5 C 329.23,100.026 330.564,101.026 331.5,102.5C 329.368,102.446 328.035,101.446 327.5,99.5 Z"/></g>
<g><path style="opacity:0.271" fill="#a49360" d="M 337.5,108.5 C 340.195,109.884 341.195,111.884 340.5,114.5C 339.261,114.058 338.261,113.391 337.5,112.5C 338.239,112.631 338.906,112.464 339.5,112C 338.177,111.184 337.511,110.017 337.5,108.5 Z"/></g>
<g><path style="opacity:1" fill="#fac313" d="M 282.5,90.5 C 273.687,95.1373 265.853,101.137 259,108.5C 258.625,111 257.792,113.333 256.5,115.5C 278.49,116.5 300.49,116.833 322.5,116.5C 316.582,123.672 312.248,131.672 309.5,140.5C 288.576,141.488 267.576,141.821 246.5,141.5C 246.5,139.833 246.5,138.167 246.5,136.5C 248.22,130.065 250.22,123.731 252.5,117.5C 247.881,118.314 243.214,118.647 238.5,118.5C 248.831,102.651 263.498,93.3175 282.5,90.5 Z"/></g>
<g><path style="opacity:0.867" fill="#a25c84" d="M 409.5,114.5 C 409.834,117.491 408.834,119.824 406.5,121.5C 406.935,118.843 407.935,116.509 409.5,114.5 Z"/></g>
<g><path style="opacity:1" fill="#972881" d="M 482.5,123.5 C 481.194,124.467 480.527,125.801 480.5,127.5C 479.5,127.5 478.5,127.5 477.5,127.5C 474.821,132.858 472.154,138.191 469.5,143.5C 468.5,143.5 467.5,143.5 466.5,143.5C 465.644,146.871 463.978,149.871 461.5,152.5C 460.378,153.63 459.044,154.297 457.5,154.5C 457.5,153.167 457.5,151.833 457.5,150.5C 452.778,150.848 448.111,151.515 443.5,152.5C 443.5,150.833 443.5,149.167 443.5,147.5C 440.833,147.833 438.167,148.167 435.5,148.5C 436.806,147.533 437.473,146.199 437.5,144.5C 438.5,144.5 439.5,144.5 440.5,144.5C 440.238,143.022 440.571,141.689 441.5,140.5C 446.649,135.028 450.983,129.028 454.5,122.5C 459.008,116.153 463.008,109.486 466.5,102.5C 467.583,102.461 468.583,102.127 469.5,101.5C 470.484,104.428 470.817,107.428 470.5,110.5C 472.819,109.833 475.153,109.666 477.5,110C 475.966,112.145 474.632,114.479 473.5,117C 474.322,119.434 474.656,121.934 474.5,124.5C 477.167,124.167 479.833,123.833 482.5,123.5 Z"/></g>
<g><path style="opacity:1" fill="#882880" d="M 508.5,120.5 C 506.141,125.042 503.974,129.708 502,134.5C 500.846,135.743 499.512,136.743 498,137.5C 494.014,143.979 489.848,150.313 485.5,156.5C 484.675,157.386 483.675,157.719 482.5,157.5C 480.196,158.163 477.863,158.83 475.5,159.5C 474.571,158.311 474.238,156.978 474.5,155.5C 473.167,155.5 471.833,155.5 470.5,155.5C 470.631,154.624 470.298,153.957 469.5,153.5C 465.492,154.502 461.492,155.502 457.5,156.5C 457.5,155.833 457.5,155.167 457.5,154.5C 459.044,154.297 460.378,153.63 461.5,152.5C 463.978,149.871 465.644,146.871 466.5,143.5C 467.5,143.5 468.5,143.5 469.5,143.5C 472.154,138.191 474.821,132.858 477.5,127.5C 478.5,127.5 479.5,127.5 480.5,127.5C 480.527,125.801 481.194,124.467 482.5,123.5C 482.5,123.167 482.5,122.833 482.5,122.5C 485.959,122.469 489.292,121.802 492.5,120.5C 493.386,121.325 493.719,122.325 493.5,123.5C 498.584,122.883 503.584,121.883 508.5,120.5 Z"/></g>
<g><path style="opacity:0.796" fill="#495683" d="M 330.5,121.5 C 329.415,123.587 327.749,124.92 325.5,125.5C 326.585,123.413 328.251,122.08 330.5,121.5 Z"/></g>
<g><path style="opacity:0.631" fill="#9d6083" d="M 406.5,122.5 C 406.59,125.152 405.924,127.485 404.5,129.5C 404.41,126.848 405.076,124.515 406.5,122.5 Z"/></g>
<g><path style="opacity:0.184" fill="#576489" d="M 325.5,125.5 C 323.814,128.504 321.814,131.17 319.5,133.5C 320.353,129.98 322.353,127.313 325.5,125.5 Z"/></g>
<g><path style="opacity:0.659" fill="#9f5d84" d="M 404.5,129.5 C 404.5,130.5 404.5,131.5 404.5,132.5C 404.011,133.995 403.345,135.329 402.5,136.5C 402.41,133.848 403.076,131.515 404.5,129.5 Z"/></g>
<g><path style="opacity:1" fill="#ca2d8b" d="M 404.5,132.5 C 405.499,198.665 405.832,264.998 405.5,331.5C 401.1,337.208 395.433,341.208 388.5,343.5C 389.815,318.313 390.482,292.98 390.5,267.5C 390.333,242.833 390.167,218.167 390,193.5C 389.963,195.974 389.13,197.974 387.5,199.5C 387.54,196.012 388.207,192.679 389.5,189.5C 391.04,187.162 391.706,184.495 391.5,181.5C 391.5,181.167 391.5,180.833 391.5,180.5C 393.04,178.162 393.706,175.495 393.5,172.5C 393.232,170.901 393.566,169.568 394.5,168.5C 395.913,165.781 396.58,162.781 396.5,159.5C 397.033,155.035 398.033,150.702 399.5,146.5C 401.074,144.898 401.741,142.898 401.5,140.5C 401.232,138.901 401.566,137.568 402.5,136.5C 403.345,135.329 404.011,133.995 404.5,132.5 Z"/></g>
<g><path style="opacity:0.878" fill="#c4baab" d="M 301.5,89.5 C 295.108,89.2487 288.775,89.582 282.5,90.5C 263.498,93.3175 248.831,102.651 238.5,118.5C 234.818,125.202 231.151,131.868 227.5,138.5C 235.257,111.909 252.59,95.4089 279.5,89C 287.012,88.1782 294.345,88.3448 301.5,89.5 Z"/></g>
<g><path style="opacity:1" fill="#0f2673" d="M 345.5,120.5 C 345.611,121.117 345.944,121.617 346.5,122C 333.072,125.264 325.405,133.764 323.5,147.5C 322.57,151.4 322.237,155.4 322.5,159.5C 321.129,160.787 319.295,161.453 317,161.5C 314.705,161.453 312.871,160.787 311.5,159.5C 313.564,150.642 316.231,141.975 319.5,133.5C 321.814,131.17 323.814,128.504 325.5,125.5C 327.749,124.92 329.415,123.587 330.5,121.5C 335.293,117.942 340.293,117.609 345.5,120.5 Z"/></g>
<g><path style="opacity:1" fill="#f9b412" d="M 246.5,136.5 C 245.691,138.028 245.024,139.694 244.5,141.5C 238.329,141.101 232.329,141.768 226.5,143.5C 227.038,141.883 227.371,140.216 227.5,138.5C 231.151,131.868 234.818,125.202 238.5,118.5C 243.214,118.647 247.881,118.314 252.5,117.5C 250.22,123.731 248.22,130.065 246.5,136.5 Z"/></g>
<g><path style="opacity:1" fill="#2b5ea8" d="M 345.5,120.5 C 347.017,120.511 348.184,121.177 349,122.5C 352.192,128.252 354.692,134.252 356.5,140.5C 356.5,141.833 356.5,143.167 356.5,144.5C 345.833,144.5 335.167,144.5 324.5,144.5C 324.737,145.791 324.404,146.791 323.5,147.5C 325.405,133.764 333.072,125.264 346.5,122C 345.944,121.617 345.611,121.117 345.5,120.5 Z"/></g>
<g><path style="opacity:1" fill="#f9bd13" d="M 246.5,136.5 C 246.5,138.167 246.5,139.833 246.5,141.5C 267.576,141.821 288.576,141.488 309.5,140.5C 307.537,147.392 305.204,154.059 302.5,160.5C 282.5,160.5 262.5,160.5 242.5,160.5C 242.5,158.5 242.5,156.5 242.5,154.5C 243.059,150.147 243.725,145.814 244.5,141.5C 245.024,139.694 245.691,138.028 246.5,136.5 Z"/></g>
<g><path style="opacity:0.086" fill="#9e968a" d="M 227.5,138.5 C 227.371,140.216 227.038,141.883 226.5,143.5C 226.167,143.5 225.833,143.5 225.5,143.5C 225.402,141.447 226.069,139.78 227.5,138.5 Z"/></g>
<g><path style="opacity:0.999" fill="#2a67ab" d="M 356.5,140.5 C 358.065,142.509 359.065,144.843 359.5,147.5C 359.674,149.861 360.007,152.194 360.5,154.5C 348.167,154.5 335.833,154.5 323.5,154.5C 323.5,156.167 323.5,157.833 323.5,159.5C 323.167,159.5 322.833,159.5 322.5,159.5C 322.237,155.4 322.57,151.4 323.5,147.5C 324.404,146.791 324.737,145.791 324.5,144.5C 335.167,144.5 345.833,144.5 356.5,144.5C 356.5,143.167 356.5,141.833 356.5,140.5 Z"/></g>
<g><path style="opacity:0.655" fill="#9e6083" d="M 401.5,140.5 C 401.741,142.898 401.074,144.898 399.5,146.5C 399.595,144.214 400.262,142.214 401.5,140.5 Z"/></g>
<g><path style="opacity:0.153" fill="#9c8fa2" d="M 538.5,103.5 C 530.264,116.293 522.764,129.626 516,143.5C 507.559,163.03 499.726,182.697 492.5,202.5C 495.9,189.634 499.9,176.967 504.5,164.5C 510.133,152.565 515.799,140.565 521.5,128.5C 523.071,126.365 524.404,124.032 525.5,121.5C 529.343,115.147 533.677,109.147 538.5,103.5 Z"/></g>
<g><path style="opacity:1" fill="#f6a713" d="M 244.5,141.5 C 243.725,145.814 243.059,150.147 242.5,154.5C 241.833,156.833 241.167,159.167 240.5,161.5C 240.5,160.5 240.5,159.5 240.5,158.5C 233.842,159.24 227.175,159.906 220.5,160.5C 220.5,159.5 220.5,158.5 220.5,157.5C 220.5,157.167 220.5,156.833 220.5,156.5C 222.834,154.824 223.834,152.491 223.5,149.5C 223.595,147.214 224.262,145.214 225.5,143.5C 225.833,143.5 226.167,143.5 226.5,143.5C 232.329,141.768 238.329,141.101 244.5,141.5 Z"/></g>
<g><path style="opacity:0.851" fill="#b99551" d="M 223.5,149.5 C 223.834,152.491 222.834,154.824 220.5,156.5C 220.935,153.843 221.935,151.509 223.5,149.5 Z"/></g>
<g><path style="opacity:0.859" fill="#53698b" d="M 319.5,133.5 C 316.231,141.975 313.564,150.642 311.5,159.5C 308.664,167.341 305.997,175.341 303.5,183.5C 303.167,183.5 302.833,183.5 302.5,183.5C 307.024,167.761 311.857,152.094 317,136.5C 317.377,135.058 318.21,134.058 319.5,133.5 Z"/></g>
<g><path style="opacity:1" fill="#cce229" d="M 111.5,153.5 C 110.653,154.966 109.32,155.8 107.5,156C 121.663,163.833 130.33,175.667 133.5,191.5C 133.746,203.197 133.413,214.864 132.5,226.5C 132.167,229.167 131.833,231.833 131.5,234.5C 131.5,235.167 131.5,235.833 131.5,236.5C 122.833,236.5 114.167,236.5 105.5,236.5C 105.737,235.209 105.404,234.209 104.5,233.5C 101.827,219.148 97.1604,205.481 90.5,192.5C 90.7148,190.821 90.0481,189.821 88.5,189.5C 85.8442,186.206 83.1775,182.873 80.5,179.5C 79.7377,177.738 78.4044,176.738 76.5,176.5C 70.9458,173.321 64.9458,171.654 58.5,171.5C 56.0065,171.869 55.3398,171.203 56.5,169.5C 58.0269,169.573 59.0269,168.906 59.5,167.5C 59.9731,166.094 60.9731,165.427 62.5,165.5C 64.0269,165.573 65.0269,164.906 65.5,163.5C 65.8417,162.662 66.5084,162.328 67.5,162.5C 69.0269,162.573 70.0269,161.906 70.5,160.5C 70.8417,159.662 71.5084,159.328 72.5,159.5C 74.698,159.88 76.3646,159.213 77.5,157.5C 81.1621,157.277 84.4954,156.277 87.5,154.5C 88.5676,153.566 89.901,153.232 91.5,153.5C 98.2056,152.559 104.872,152.559 111.5,153.5 Z"/></g>
<g><path style="opacity:0.722" fill="#a6b057" d="M 87.5,154.5 C 84.4954,156.277 81.1621,157.277 77.5,157.5C 80.5046,155.723 83.8379,154.723 87.5,154.5 Z"/></g>
<g><path style="opacity:1" fill="#f8b715" d="M 242.5,154.5 C 242.5,156.5 242.5,158.5 242.5,160.5C 262.5,160.5 282.5,160.5 302.5,160.5C 301.204,166.05 299.537,171.383 297.5,176.5C 278.5,176.5 259.5,176.5 240.5,176.5C 240.5,173.833 240.5,171.167 240.5,168.5C 240.5,166.167 240.5,163.833 240.5,161.5C 241.167,159.167 241.833,156.833 242.5,154.5 Z"/></g>
<g><path style="opacity:1" fill="#922279" d="M 457.5,154.5 C 457.5,155.167 457.5,155.833 457.5,156.5C 451.884,163.955 446.051,171.289 440,178.5C 434.545,180.862 433.045,184.529 435.5,189.5C 438.453,188.408 441.453,187.908 444.5,188C 437.309,195.359 429.975,202.525 422.5,209.5C 421.557,214.1 421.223,218.767 421.5,223.5C 421.5,226.833 421.5,230.167 421.5,233.5C 420.507,224.682 420.173,215.682 420.5,206.5C 420.333,193.496 420.5,180.496 421,167.5C 425.678,160.997 430.511,154.663 435.5,148.5C 438.167,148.167 440.833,147.833 443.5,147.5C 443.5,149.167 443.5,150.833 443.5,152.5C 448.111,151.515 452.778,150.848 457.5,150.5C 457.5,151.833 457.5,153.167 457.5,154.5 Z"/></g>
<g><path style="opacity:1" fill="#7f257c" d="M 513.5,119.5 C 514.451,120.919 514.784,122.585 514.5,124.5C 516.591,124.682 518.591,124.348 520.5,123.5C 521.452,125.045 521.785,126.712 521.5,128.5C 515.799,140.565 510.133,152.565 504.5,164.5C 503.116,163.199 501.616,163.199 500,164.5C 499.667,162.833 499.333,161.167 499,159.5C 494.937,163.853 491.437,168.52 488.5,173.5C 483.408,178.253 478.742,183.253 474.5,188.5C 474.5,187.167 474.5,185.833 474.5,184.5C 470.607,184.764 466.774,185.431 463,186.5C 462.167,186.167 461.333,185.833 460.5,185.5C 465.335,179.076 470.668,173.076 476.5,167.5C 478.937,164.403 480.937,161.07 482.5,157.5C 483.675,157.719 484.675,157.386 485.5,156.5C 489.848,150.313 494.014,143.979 498,137.5C 499.512,136.743 500.846,135.743 502,134.5C 503.974,129.708 506.141,125.042 508.5,120.5C 510.216,120.371 511.883,120.038 513.5,119.5 Z"/></g>
<g><path style="opacity:0.816" fill="#a8b256" d="M 77.5,157.5 C 76.3646,159.213 74.698,159.88 72.5,159.5C 73.9303,158.463 75.597,157.796 77.5,157.5 Z"/></g>
<g><path style="opacity:0.753" fill="#ba9650" d="M 220.5,157.5 C 220.5,158.5 220.5,159.5 220.5,160.5C 220.167,161.5 219.5,162.167 218.5,162.5C 218.796,160.597 219.463,158.93 220.5,157.5 Z"/></g>
<g><path style="opacity:0.537" fill="#9ea55e" d="M 70.5,160.5 C 70.0269,161.906 69.0269,162.573 67.5,162.5C 67.9731,161.094 68.9731,160.427 70.5,160.5 Z"/></g>
<g><path style="opacity:0.451" fill="#aeb09d" d="M 154.5,172.5 C 142.05,162.112 127.716,155.779 111.5,153.5C 104.872,152.559 98.2056,152.559 91.5,153.5C 115.867,148.51 136.867,154.844 154.5,172.5 Z"/></g>
<g><path style="opacity:0.635" fill="#9f6084" d="M 396.5,159.5 C 396.58,162.781 395.913,165.781 394.5,168.5C 394.42,165.219 395.087,162.219 396.5,159.5 Z"/></g>
<g><path style="opacity:0.635" fill="#a5af57" d="M 65.5,163.5 C 65.0269,164.906 64.0269,165.573 62.5,165.5C 62.9731,164.094 63.9731,163.427 65.5,163.5 Z"/></g>
<g><path style="opacity:0.769" fill="#ba954e" d="M 218.5,163.5 C 218.88,165.698 218.213,167.365 216.5,168.5C 216.796,166.597 217.463,164.93 218.5,163.5 Z"/></g>
<g><path style="opacity:1" fill="#2a71ad" d="M 359.5,147.5 C 361.601,150.797 362.935,154.463 363.5,158.5C 364.699,162.769 365.699,167.103 366.5,171.5C 353.167,171.5 339.833,171.5 326.5,171.5C 326.5,172.5 326.5,173.5 326.5,174.5C 324.625,169.794 323.625,164.794 323.5,159.5C 323.5,157.833 323.5,156.167 323.5,154.5C 335.833,154.5 348.167,154.5 360.5,154.5C 360.007,152.194 359.674,149.861 359.5,147.5 Z"/></g>
<g><path style="opacity:1" fill="#f59b0e" d="M 240.5,161.5 C 240.5,163.833 240.5,166.167 240.5,168.5C 239.517,172.298 239.183,176.298 239.5,180.5C 239.167,180.5 238.833,180.5 238.5,180.5C 238.5,179.167 238.5,177.833 238.5,176.5C 230.429,176.92 222.429,177.587 214.5,178.5C 214.5,177.5 214.5,176.5 214.5,175.5C 214.5,175.167 214.5,174.833 214.5,174.5C 216.213,173.365 216.88,171.698 216.5,169.5C 216.5,169.167 216.5,168.833 216.5,168.5C 218.213,167.365 218.88,165.698 218.5,163.5C 218.5,163.167 218.5,162.833 218.5,162.5C 219.5,162.167 220.167,161.5 220.5,160.5C 227.175,159.906 233.842,159.24 240.5,158.5C 240.5,159.5 240.5,160.5 240.5,161.5 Z"/></g>
<g><path style="opacity:0.608" fill="#a4ae58" d="M 59.5,167.5 C 59.0269,168.906 58.0269,169.573 56.5,169.5C 56.9731,168.094 57.9731,167.427 59.5,167.5 Z"/></g>
<g><path style="opacity:1" fill="#093078" d="M 311.5,159.5 C 312.871,160.787 314.705,161.453 317,161.5C 319.295,161.453 321.129,160.787 322.5,159.5C 322.833,159.5 323.167,159.5 323.5,159.5C 323.625,164.794 324.625,169.794 326.5,174.5C 326.5,175.833 326.5,177.167 326.5,178.5C 326.67,179.822 326.337,180.989 325.5,182C 318.251,183.641 311.084,185.474 304,187.5C 303.51,186.207 303.343,184.873 303.5,183.5C 305.997,175.341 308.664,167.341 311.5,159.5 Z"/></g>
<g><path style="opacity:1" fill="#c0d923" d="M 111.5,153.5 C 127.716,155.779 142.05,162.112 154.5,172.5C 154.5,173.833 155.167,174.5 156.5,174.5C 156.5,175.833 157.167,176.5 158.5,176.5C 159.754,179.093 161.42,181.427 163.5,183.5C 153.747,186.773 143.747,189.44 133.5,191.5C 130.33,175.667 121.663,163.833 107.5,156C 109.32,155.8 110.653,154.966 111.5,153.5 Z"/></g>
<g><path style="opacity:0.196" fill="#91966b" d="M 56.5,169.5 C 55.3398,171.203 56.0065,171.869 58.5,171.5C 56.9652,172.788 55.2985,172.788 53.5,171.5C 54.0047,170.081 55.0047,169.415 56.5,169.5 Z"/></g>
<g><path style="opacity:0.725" fill="#b69251" d="M 216.5,169.5 C 216.88,171.698 216.213,173.365 214.5,174.5C 214.796,172.597 215.463,170.93 216.5,169.5 Z"/></g>
<g><path style="opacity:0.769" fill="#abb17e" d="M 154.5,172.5 C 155.5,172.833 156.167,173.5 156.5,174.5C 155.167,174.5 154.5,173.833 154.5,172.5 Z"/></g>
<g><path style="opacity:0.792" fill="#aab07a" d="M 156.5,174.5 C 157.5,174.833 158.167,175.5 158.5,176.5C 157.167,176.5 156.5,175.833 156.5,174.5 Z"/></g>
<g><path style="opacity:0.561" fill="#9da460" d="M 76.5,176.5 C 78.4044,176.738 79.7377,177.738 80.5,179.5C 78.5956,179.262 77.2623,178.262 76.5,176.5 Z"/></g>
<g><path style="opacity:0.737" fill="#a5aa7f" d="M 158.5,176.5 C 161.243,178.239 163.243,180.573 164.5,183.5C 164.167,183.5 163.833,183.5 163.5,183.5C 161.42,181.427 159.754,179.093 158.5,176.5 Z"/></g>
<g><path style="opacity:0.627" fill="#b38e54" d="M 214.5,175.5 C 214.5,176.5 214.5,177.5 214.5,178.5C 214.011,179.995 213.345,181.329 212.5,182.5C 212.41,179.848 213.076,177.515 214.5,175.5 Z"/></g>
<g><path style="opacity:1" fill="#2d7daf" d="M 363.5,158.5 C 367.473,167.086 370.473,176.086 372.5,185.5C 372.5,186.833 372.5,188.167 372.5,189.5C 358.833,189.5 345.167,189.5 331.5,189.5C 331.5,190.5 331.5,191.5 331.5,192.5C 331.167,192.5 330.833,192.5 330.5,192.5C 329.739,187.563 328.405,182.897 326.5,178.5C 326.5,177.167 326.5,175.833 326.5,174.5C 326.5,173.5 326.5,172.5 326.5,171.5C 339.833,171.5 353.167,171.5 366.5,171.5C 365.699,167.103 364.699,162.769 363.5,158.5 Z"/></g>
<g><path style="opacity:0.349" fill="#9b6383" d="M 393.5,172.5 C 393.706,175.495 393.04,178.162 391.5,180.5C 391.565,177.572 392.232,174.905 393.5,172.5 Z"/></g>
<g><path style="opacity:1" fill="#f48e0e" d="M 238.5,180.5 C 238.5,189.5 238.5,198.5 238.5,207.5C 238.5,211.833 238.5,216.167 238.5,220.5C 238.5,220.833 238.5,221.167 238.5,221.5C 237.515,217.366 237.182,213.032 237.5,208.5C 237.5,203.167 237.5,197.833 237.5,192.5C 228.061,192.418 218.728,193.085 209.5,194.5C 210.91,190.603 211.91,186.603 212.5,182.5C 213.345,181.329 214.011,179.995 214.5,178.5C 222.429,177.587 230.429,176.92 238.5,176.5C 238.5,177.833 238.5,179.167 238.5,180.5 Z"/></g>
<g><path style="opacity:0.749" fill="#b18a56" d="M 212.5,182.5 C 211.91,186.603 210.91,190.603 209.5,194.5C 209.167,194.5 208.833,194.5 208.5,194.5C 209.261,190.216 210.595,186.216 212.5,182.5 Z"/></g>
<g><path style="opacity:1" fill="#f7b017" d="M 240.5,168.5 C 240.5,171.167 240.5,173.833 240.5,176.5C 259.5,176.5 278.5,176.5 297.5,176.5C 295.87,183.051 293.87,189.384 291.5,195.5C 274.341,194.503 257.008,194.17 239.5,194.5C 239.5,189.833 239.5,185.167 239.5,180.5C 239.183,176.298 239.517,172.298 240.5,168.5 Z"/></g>
<g><path style="opacity:0.212" fill="#9ba07f" d="M 164.5,183.5 C 166.587,184.585 167.92,186.251 168.5,188.5C 166.413,187.415 165.08,185.749 164.5,183.5 Z"/></g>
<g><path style="opacity:1" fill="#f7aa17" d="M 238.5,180.5 C 238.833,180.5 239.167,180.5 239.5,180.5C 239.5,185.167 239.5,189.833 239.5,194.5C 257.008,194.17 274.341,194.503 291.5,195.5C 291.072,198.785 290.072,201.785 288.5,204.5C 287.596,205.209 287.263,206.209 287.5,207.5C 271.167,207.5 254.833,207.5 238.5,207.5C 238.5,198.5 238.5,189.5 238.5,180.5 Z"/></g>
<g><path style="opacity:0.863" fill="#536d89" d="M 302.5,183.5 C 301.581,189.259 300.247,194.926 298.5,200.5C 297.833,201.167 297.167,201.833 296.5,202.5C 298.13,195.949 300.13,189.616 302.5,183.5 Z"/></g>
<g><path style="opacity:1" fill="#0e4082" d="M 326.5,178.5 C 328.405,182.897 329.739,187.563 330.5,192.5C 329.653,193.966 328.32,194.8 326.5,195C 317.138,196.584 307.972,198.751 299,201.5C 298.601,201.272 298.435,200.938 298.5,200.5C 300.247,194.926 301.581,189.259 302.5,183.5C 302.833,183.5 303.167,183.5 303.5,183.5C 303.343,184.873 303.51,186.207 304,187.5C 311.084,185.474 318.251,183.641 325.5,182C 326.337,180.989 326.67,179.822 326.5,178.5 Z"/></g>
<g><path style="opacity:0.365" fill="#9e6283" d="M 391.5,181.5 C 391.706,184.495 391.04,187.162 389.5,189.5C 389.565,186.572 390.232,183.905 391.5,181.5 Z"/></g>
<g><path style="opacity:0.765" fill="#a3ab5d" d="M 88.5,189.5 C 90.0481,189.821 90.7148,190.821 90.5,192.5C 89.5987,191.71 88.9321,190.71 88.5,189.5 Z"/></g>
<g><path style="opacity:0.325" fill="#9da281" d="M 168.5,188.5 C 169.906,188.973 170.573,189.973 170.5,191.5C 169.094,191.027 168.427,190.027 168.5,188.5 Z"/></g>
<g><path style="opacity:0.353" fill="#9ea37e" d="M 170.5,191.5 C 171.906,191.973 172.573,192.973 172.5,194.5C 171.094,194.027 170.427,193.027 170.5,191.5 Z"/></g>
<g><path style="opacity:1" fill="#104986" d="M 330.5,192.5 C 330.833,192.5 331.167,192.5 331.5,192.5C 331.993,194.806 332.326,197.139 332.5,199.5C 332.586,200.496 332.252,201.329 331.5,202C 319.369,205.212 307.369,208.712 295.5,212.5C 295.833,209.167 296.167,205.833 296.5,202.5C 297.167,201.833 297.833,201.167 298.5,200.5C 298.435,200.938 298.601,201.272 299,201.5C 307.972,198.751 317.138,196.584 326.5,195C 328.32,194.8 329.653,193.966 330.5,192.5 Z"/></g>
<g><path style="opacity:1" fill="#882075" d="M 470.5,155.5 C 467.551,161.106 464.218,166.44 460.5,171.5C 459.325,171.281 458.325,171.614 457.5,172.5C 454.809,175.551 452.475,178.884 450.5,182.5C 449.167,183.5 447.833,184.5 446.5,185.5C 449.089,186.205 451.756,186.205 454.5,185.5C 454.281,186.675 454.614,187.675 455.5,188.5C 456.396,187.494 457.062,187.494 457.5,188.5C 448.804,196.281 440.804,204.614 433.5,213.5C 429.529,216.799 425.529,220.132 421.5,223.5C 421.223,218.767 421.557,214.1 422.5,209.5C 429.975,202.525 437.309,195.359 444.5,188C 441.453,187.908 438.453,188.408 435.5,189.5C 433.045,184.529 434.545,180.862 440,178.5C 446.051,171.289 451.884,163.955 457.5,156.5C 461.492,155.502 465.492,154.502 469.5,153.5C 470.298,153.957 470.631,154.624 470.5,155.5 Z"/></g>
<g><path style="opacity:1" fill="#822075" d="M 470.5,155.5 C 471.833,155.5 473.167,155.5 474.5,155.5C 474.238,156.978 474.571,158.311 475.5,159.5C 477.863,158.83 480.196,158.163 482.5,157.5C 480.937,161.07 478.937,164.403 476.5,167.5C 470.668,173.076 465.335,179.076 460.5,185.5C 461.333,185.833 462.167,186.167 463,186.5C 466.774,185.431 470.607,184.764 474.5,184.5C 474.5,185.833 474.5,187.167 474.5,188.5C 472.39,191.281 469.724,193.281 466.5,194.5C 466.719,195.675 466.386,196.675 465.5,197.5C 460.897,201.621 456.564,205.954 452.5,210.5C 446.233,212.66 439.9,213.66 433.5,213.5C 440.804,204.614 448.804,196.281 457.5,188.5C 457.062,187.494 456.396,187.494 455.5,188.5C 454.614,187.675 454.281,186.675 454.5,185.5C 451.756,186.205 449.089,186.205 446.5,185.5C 447.833,184.5 449.167,183.5 450.5,182.5C 452.475,178.884 454.809,175.551 457.5,172.5C 458.325,171.614 459.325,171.281 460.5,171.5C 464.218,166.44 467.551,161.106 470.5,155.5 Z"/></g>
<g><path style="opacity:0.302" fill="#9da280" d="M 172.5,194.5 C 173.906,194.973 174.573,195.973 174.5,197.5C 173.094,197.027 172.427,196.027 172.5,194.5 Z"/></g>
<g><path style="opacity:1" fill="#2c88b2" d="M 372.5,185.5 C 374.258,188.854 375.258,192.521 375.5,196.5C 375.5,198.5 375.5,200.5 375.5,202.5C 362.167,202.5 348.833,202.5 335.5,202.5C 335.5,203.5 335.5,204.5 335.5,205.5C 334.5,203.5 333.5,201.5 332.5,199.5C 332.326,197.139 331.993,194.806 331.5,192.5C 331.5,191.5 331.5,190.5 331.5,189.5C 345.167,189.5 358.833,189.5 372.5,189.5C 372.5,188.167 372.5,186.833 372.5,185.5 Z"/></g>
<g><path style="opacity:0.733" fill="#b78c65" d="M 208.5,195.5 C 208.741,197.898 208.074,199.898 206.5,201.5C 206.595,199.214 207.262,197.214 208.5,195.5 Z"/></g>
<g><path style="opacity:1" fill="#b2cc1d" d="M 163.5,183.5 C 163.833,183.5 164.167,183.5 164.5,183.5C 165.08,185.749 166.413,187.415 168.5,188.5C 168.427,190.027 169.094,191.027 170.5,191.5C 170.427,193.027 171.094,194.027 172.5,194.5C 172.427,196.027 173.094,197.027 174.5,197.5C 174.427,199.027 175.094,200.027 176.5,200.5C 177.674,201.514 178.34,202.847 178.5,204.5C 178.427,206.027 179.094,207.027 180.5,207.5C 181.338,207.842 181.672,208.508 181.5,209.5C 181.714,211.144 181.38,212.644 180.5,214C 165.541,217.656 150.541,221.156 135.5,224.5C 134.261,224.942 133.261,225.609 132.5,226.5C 133.413,214.864 133.746,203.197 133.5,191.5C 143.747,189.44 153.747,186.773 163.5,183.5 Z"/></g>
<g><path style="opacity:0.184" fill="#959881" d="M 174.5,197.5 C 175.906,197.973 176.573,198.973 176.5,200.5C 175.094,200.027 174.427,199.027 174.5,197.5 Z"/></g>
<g><path style="opacity:1" fill="#f3810e" d="M 237.5,208.5 C 226.398,208.928 215.398,209.928 204.5,211.5C 205.787,208.302 206.453,204.969 206.5,201.5C 208.074,199.898 208.741,197.898 208.5,195.5C 208.5,195.167 208.5,194.833 208.5,194.5C 208.833,194.5 209.167,194.5 209.5,194.5C 218.728,193.085 228.061,192.418 237.5,192.5C 237.5,197.833 237.5,203.167 237.5,208.5 Z"/></g>
<g><path style="opacity:0.682" fill="#a35d83" d="M 387.5,199.5 C 387.58,202.781 386.913,205.781 385.5,208.5C 385.42,205.219 386.087,202.219 387.5,199.5 Z"/></g>
<g><path style="opacity:0.871" fill="#c19372" d="M 206.5,201.5 C 206.453,204.969 205.787,208.302 204.5,211.5C 203.069,216.011 201.402,220.345 199.5,224.5C 201.259,216.564 203.592,208.898 206.5,201.5 Z"/></g>
<g><path style="opacity:0.141" fill="#929580" d="M 178.5,204.5 C 179.906,204.973 180.573,205.973 180.5,207.5C 179.094,207.027 178.427,206.027 178.5,204.5 Z"/></g>
<g><path style="opacity:1" fill="#15558d" d="M 332.5,199.5 C 333.5,201.5 334.5,203.5 335.5,205.5C 336.167,208.833 336.833,212.167 337.5,215.5C 335.731,217.397 333.398,218.564 330.5,219C 317.177,221.942 303.844,224.775 290.5,227.5C 290.5,225.5 290.5,223.5 290.5,221.5C 292.806,217.915 294.139,213.915 294.5,209.5C 294.41,206.848 295.076,204.515 296.5,202.5C 296.167,205.833 295.833,209.167 295.5,212.5C 307.369,208.712 319.369,205.212 331.5,202C 332.252,201.329 332.586,200.496 332.5,199.5 Z"/></g>
<g><path style="opacity:0.999" fill="#2e90b4" d="M 375.5,196.5 C 378.095,201.56 378.761,206.894 377.5,212.5C 376.596,213.209 376.263,214.209 376.5,215.5C 364.167,215.5 351.833,215.5 339.5,215.5C 339.5,216.5 339.5,217.5 339.5,218.5C 338.833,217.5 338.167,216.5 337.5,215.5C 336.833,212.167 336.167,208.833 335.5,205.5C 335.5,204.5 335.5,203.5 335.5,202.5C 348.833,202.5 362.167,202.5 375.5,202.5C 375.5,200.5 375.5,198.5 375.5,196.5 Z"/></g>
<g><path style="opacity:1" fill="#f5a41b" d="M 288.5,204.5 C 287.408,210.433 285.741,216.1 283.5,221.5C 268.676,220.504 253.676,220.171 238.5,220.5C 238.5,216.167 238.5,211.833 238.5,207.5C 254.833,207.5 271.167,207.5 287.5,207.5C 287.263,206.209 287.596,205.209 288.5,204.5 Z"/></g>
<g><path style="opacity:1" fill="#6f236e" d="M 492.5,202.5 C 488.123,218.689 483.457,234.689 478.5,250.5C 478.5,248.167 478.5,245.833 478.5,243.5C 475.794,243.575 473.127,243.908 470.5,244.5C 470.5,243.5 470.5,242.5 470.5,241.5C 467.165,242.339 463.832,242.839 460.5,243C 463.711,242.268 465.711,240.434 466.5,237.5C 468.355,237.728 469.188,237.061 469,235.5C 464.333,236.833 459.667,238.167 455,239.5C 454.51,238.207 454.343,236.873 454.5,235.5C 456.216,234.029 458.216,233.029 460.5,232.5C 462.5,229.5 464.5,226.5 466.5,223.5C 468.698,222.986 470.698,221.986 472.5,220.5C 478.856,214.478 484.856,208.145 490.5,201.5C 491.183,201.863 491.85,202.196 492.5,202.5 Z"/></g>
<g><path style="opacity:1" fill="#d02d8a" d="M 388.5,343.5 C 384.246,344.646 379.913,345.313 375.5,345.5C 376.819,329.553 377.485,313.386 377.5,297C 377.5,280.996 377.167,265.163 376.5,249.5C 376.5,248.5 376.5,247.5 376.5,246.5C 377.367,240.701 378.7,235.034 380.5,229.5C 382.04,227.162 382.706,224.495 382.5,221.5C 382.882,216.908 383.882,212.575 385.5,208.5C 386.913,205.781 387.58,202.781 387.5,199.5C 389.13,197.974 389.963,195.974 390,193.5C 390.167,218.167 390.333,242.833 390.5,267.5C 390.482,292.98 389.815,318.313 388.5,343.5 Z"/></g>
<g><path style="opacity:1" fill="#7b1a6d" d="M 452.5,210.5 C 454.176,211.183 454.843,212.517 454.5,214.5C 457.493,213.865 460.493,213.699 463.5,214C 461.561,214.908 460.561,216.408 460.5,218.5C 458.567,218.729 456.9,219.562 455.5,221C 449.232,227.444 442.566,233.277 435.5,238.5C 432.41,242.574 428.41,245.574 423.5,247.5C 422.833,252.985 422.167,258.319 421.5,263.5C 421.5,253.5 421.5,243.5 421.5,233.5C 421.5,230.167 421.5,226.833 421.5,223.5C 425.529,220.132 429.529,216.799 433.5,213.5C 439.9,213.66 446.233,212.66 452.5,210.5 Z"/></g>
<g><path style="opacity:1" fill="#751e71" d="M 504.5,164.5 C 499.9,176.967 495.9,189.634 492.5,202.5C 491.85,202.196 491.183,201.863 490.5,201.5C 484.856,208.145 478.856,214.478 472.5,220.5C 470.698,221.986 468.698,222.986 466.5,223.5C 464.5,226.5 462.5,229.5 460.5,232.5C 458.216,233.029 456.216,234.029 454.5,235.5C 448.145,236.338 441.812,237.338 435.5,238.5C 442.566,233.277 449.232,227.444 455.5,221C 456.9,219.562 458.567,218.729 460.5,218.5C 460.561,216.408 461.561,214.908 463.5,214C 460.493,213.699 457.493,213.865 454.5,214.5C 454.843,212.517 454.176,211.183 452.5,210.5C 456.564,205.954 460.897,201.621 465.5,197.5C 466.386,196.675 466.719,195.675 466.5,194.5C 469.724,193.281 472.39,191.281 474.5,188.5C 478.742,183.253 483.408,178.253 488.5,173.5C 491.437,168.52 494.937,163.853 499,159.5C 499.333,161.167 499.667,162.833 500,164.5C 501.616,163.199 503.116,163.199 504.5,164.5 Z"/></g>
<g><path style="opacity:0.78" fill="#557289" d="M 294.5,209.5 C 294.139,213.915 292.806,217.915 290.5,221.5C 291.261,217.216 292.595,213.216 294.5,209.5 Z"/></g>
<g><path style="opacity:1" fill="#a9c41c" d="M 181.5,209.5 C 182.674,210.514 183.34,211.847 183.5,213.5C 183.12,215.698 183.787,217.365 185.5,218.5C 185.674,220.861 186.007,223.194 186.5,225.5C 169.543,227.881 152.543,230.048 135.5,232C 133.867,232.48 132.534,233.313 131.5,234.5C 131.833,231.833 132.167,229.167 132.5,226.5C 133.261,225.609 134.261,224.942 135.5,224.5C 150.541,221.156 165.541,217.656 180.5,214C 181.38,212.644 181.714,211.144 181.5,209.5 Z"/></g>
<g><path style="opacity:1" fill="#f1760f" d="M 237.5,208.5 C 237.182,213.032 237.515,217.366 238.5,221.5C 238.5,225.833 238.5,230.167 238.5,234.5C 237.834,230.647 237.167,226.647 236.5,222.5C 224.095,223.428 211.761,224.761 199.5,226.5C 199.5,225.833 199.5,225.167 199.5,224.5C 201.402,220.345 203.069,216.011 204.5,211.5C 215.398,209.928 226.398,208.928 237.5,208.5 Z"/></g>
<g><path style="opacity:0.839" fill="#9fa869" d="M 183.5,213.5 C 184.537,214.93 185.204,216.597 185.5,218.5C 183.787,217.365 183.12,215.698 183.5,213.5 Z"/></g>
<g><path style="opacity:1" fill="#1b6594" d="M 337.5,215.5 C 338.167,216.5 338.833,217.5 339.5,218.5C 339.448,220.903 339.781,223.236 340.5,225.5C 340.5,226.833 340.5,228.167 340.5,229.5C 324.44,232.515 308.44,235.848 292.5,239.5C 291.833,238.5 291.167,237.5 290.5,236.5C 289.526,233.702 288.86,230.702 288.5,227.5C 288.599,225.201 289.266,223.201 290.5,221.5C 290.5,223.5 290.5,225.5 290.5,227.5C 303.844,224.775 317.177,221.942 330.5,219C 333.398,218.564 335.731,217.397 337.5,215.5 Z"/></g>
<g><path style="opacity:1" fill="#329bb5" d="M 377.5,212.5 C 376.118,221.425 374.118,230.091 371.5,238.5C 371.5,236.833 371.5,235.167 371.5,233.5C 362.083,233.195 352.75,233.528 343.5,234.5C 342.64,231.368 341.64,228.368 340.5,225.5C 339.781,223.236 339.448,220.903 339.5,218.5C 339.5,217.5 339.5,216.5 339.5,215.5C 351.833,215.5 364.167,215.5 376.5,215.5C 376.263,214.209 376.596,213.209 377.5,212.5 Z"/></g>
<g><path style="opacity:0.906" fill="#959f5e" d="M 187.5,223.5 C 190.315,227.211 190.981,231.211 189.5,235.5C 189.428,231.374 188.761,227.374 187.5,223.5 Z"/></g>
<g><path style="opacity:1" fill="#f49e1d" d="M 238.5,220.5 C 253.676,220.171 268.676,220.504 283.5,221.5C 282.434,227.12 280.767,232.453 278.5,237.5C 278.5,236.167 278.5,234.833 278.5,233.5C 264.92,232.88 251.587,233.547 238.5,235.5C 238.5,235.167 238.5,234.833 238.5,234.5C 238.5,230.167 238.5,225.833 238.5,221.5C 238.5,221.167 238.5,220.833 238.5,220.5 Z"/></g>
<g><path style="opacity:0.353" fill="#9d6382" d="M 382.5,221.5 C 382.706,224.495 382.04,227.162 380.5,229.5C 380.565,226.572 381.232,223.905 382.5,221.5 Z"/></g>
<g><path style="opacity:1" fill="#ef690e" d="M 238.5,234.5 C 238.5,234.833 238.5,235.167 238.5,235.5C 238.5,237.167 238.5,238.833 238.5,240.5C 238.5,241.833 238.5,243.167 238.5,244.5C 237.549,243.081 237.216,241.415 237.5,239.5C 223.404,239.892 209.404,240.892 195.5,242.5C 196.519,237.089 197.853,231.756 199.5,226.5C 211.761,224.761 224.095,223.428 236.5,222.5C 237.167,226.647 237.834,230.647 238.5,234.5 Z"/></g>
<g><path style="opacity:1" fill="#f5981d" d="M 278.5,237.5 C 278.101,241.116 277.101,244.45 275.5,247.5C 263.5,247.5 251.5,247.5 239.5,247.5C 239.802,244.941 239.468,242.607 238.5,240.5C 238.5,238.833 238.5,237.167 238.5,235.5C 251.587,233.547 264.92,232.88 278.5,233.5C 278.5,234.833 278.5,236.167 278.5,237.5 Z"/></g>
<g><path style="opacity:1" fill="#1b719a" d="M 340.5,225.5 C 341.64,228.368 342.64,231.368 343.5,234.5C 343.5,235.167 343.5,235.833 343.5,236.5C 343.5,237.5 343.5,238.5 343.5,239.5C 327.139,242.673 310.806,246.007 294.5,249.5C 292.989,246.456 292.322,243.122 292.5,239.5C 308.44,235.848 324.44,232.515 340.5,229.5C 340.5,228.167 340.5,226.833 340.5,225.5 Z"/></g>
<g><path style="opacity:1" fill="#9dba1c" d="M 185.5,218.5 C 186.931,219.78 187.598,221.447 187.5,223.5C 188.761,227.374 189.428,231.374 189.5,235.5C 189.784,237.415 189.451,239.081 188.5,240.5C 187.732,241.263 187.232,242.263 187,243.5C 186.667,242.833 186.333,242.167 186,241.5C 166.989,244.095 148.155,247.095 129.5,250.5C 130.004,245.798 130.671,241.131 131.5,236.5C 131.5,235.833 131.5,235.167 131.5,234.5C 132.534,233.313 133.867,232.48 135.5,232C 152.543,230.048 169.543,227.881 186.5,225.5C 186.007,223.194 185.674,220.861 185.5,218.5 Z"/></g>
<g><path style="opacity:0.835" fill="#c2947d" d="M 199.5,224.5 C 199.5,225.167 199.5,225.833 199.5,226.5C 197.853,231.756 196.519,237.089 195.5,242.5C 194.976,244.306 194.309,245.972 193.5,247.5C 192.833,247.833 192.167,248.167 191.5,248.5C 193.875,240.303 196.542,232.303 199.5,224.5 Z"/></g>
<g><path style="opacity:0.999" fill="#32a7b8" d="M 371.5,238.5 C 370.611,244.819 368.944,250.819 366.5,256.5C 366.5,254.5 366.5,252.5 366.5,250.5C 360.167,250.5 353.833,250.5 347.5,250.5C 346.833,249.5 346.167,248.5 345.5,247.5C 345.354,243.613 344.687,239.946 343.5,236.5C 343.5,235.833 343.5,235.167 343.5,234.5C 352.75,233.528 362.083,233.195 371.5,233.5C 371.5,235.167 371.5,236.833 371.5,238.5 Z"/></g>
<g><path style="opacity:1" fill="#691665" d="M 454.5,235.5 C 454.343,236.873 454.51,238.207 455,239.5C 459.667,238.167 464.333,236.833 469,235.5C 469.188,237.061 468.355,237.728 466.5,237.5C 465.711,240.434 463.711,242.268 460.5,243C 463.832,242.839 467.165,242.339 470.5,241.5C 470.5,242.5 470.5,243.5 470.5,244.5C 473.127,243.908 475.794,243.575 478.5,243.5C 478.5,245.833 478.5,248.167 478.5,250.5C 477.833,250.833 477.167,251.167 476.5,251.5C 477.519,249.46 477.519,247.46 476.5,245.5C 475.833,245.833 475.167,246.167 474.5,246.5C 470.109,250.527 465.776,254.527 461.5,258.5C 455.22,262.119 449.22,266.119 443.5,270.5C 436.382,276.617 428.716,281.95 420.5,286.5C 421.143,278.85 421.477,271.183 421.5,263.5C 422.167,258.319 422.833,252.985 423.5,247.5C 428.41,245.574 432.41,242.574 435.5,238.5C 441.812,237.338 448.145,236.338 454.5,235.5 Z"/></g>
<g><path style="opacity:1" fill="#93b01f" d="M 188.5,240.5 C 187.924,245.809 186.591,250.809 184.5,255.5C 183.448,254.47 182.114,253.803 180.5,253.5C 163.071,256.254 145.738,259.254 128.5,262.5C 128.646,258.481 128.979,254.481 129.5,250.5C 148.155,247.095 166.989,244.095 186,241.5C 186.333,242.167 186.667,242.833 187,243.5C 187.232,242.263 187.732,241.263 188.5,240.5 Z"/></g>
<g><path style="opacity:1" fill="#207ea0" d="M 343.5,236.5 C 344.687,239.946 345.354,243.613 345.5,247.5C 345.5,248.5 345.5,249.5 345.5,250.5C 329.47,253.706 313.47,257.039 297.5,260.5C 297.167,259.5 296.5,258.833 295.5,258.5C 294.566,257.432 294.232,256.099 294.5,254.5C 294.5,252.833 294.5,251.167 294.5,249.5C 310.806,246.007 327.139,242.673 343.5,239.5C 343.5,238.5 343.5,237.5 343.5,236.5 Z"/></g>
<g><path style="opacity:0.467" fill="#7a8a9b" d="M 290.5,236.5 C 291.167,237.5 291.833,238.5 292.5,239.5C 292.322,243.122 292.989,246.456 294.5,249.5C 294.5,251.167 294.5,252.833 294.5,254.5C 292.293,248.809 290.959,242.809 290.5,236.5 Z"/></g>
<g><path style="opacity:1" fill="#ed5c0c" d="M 238.5,244.5 C 238.5,247.833 238.5,251.167 238.5,254.5C 222.812,255.185 207.145,256.185 191.5,257.5C 191.959,254.123 192.626,250.789 193.5,247.5C 194.309,245.972 194.976,244.306 195.5,242.5C 209.404,240.892 223.404,239.892 237.5,239.5C 237.216,241.415 237.549,243.081 238.5,244.5 Z"/></g>
<g><path style="opacity:1" fill="#f28f21" d="M 238.5,240.5 C 239.468,242.607 239.802,244.941 239.5,247.5C 251.5,247.5 263.5,247.5 275.5,247.5C 273.279,256.736 270.612,265.736 267.5,274.5C 267.5,273.167 267.5,271.833 267.5,270.5C 258.5,270.5 249.5,270.5 240.5,270.5C 240.768,268.901 240.434,267.568 239.5,266.5C 239.495,262.466 239.162,258.466 238.5,254.5C 238.5,251.167 238.5,247.833 238.5,244.5C 238.5,243.167 238.5,241.833 238.5,240.5 Z"/></g>
<g><path style="opacity:1" fill="#d72b8a" d="M 376.5,249.5 C 377.167,265.163 377.5,280.996 377.5,297C 377.485,313.386 376.819,329.553 375.5,345.5C 372.946,346.388 370.279,346.721 367.5,346.5C 365.585,346.784 363.919,346.451 362.5,345.5C 360.095,344.232 357.428,343.565 354.5,343.5C 350.463,342.935 346.797,341.601 343.5,339.5C 345.861,339.674 348.194,340.007 350.5,340.5C 350.831,331.808 350.498,323.141 349.5,314.5C 348.378,315.63 347.044,316.297 345.5,316.5C 347.167,314.167 349.167,312.167 351.5,310.5C 352.906,310.027 353.573,309.027 353.5,307.5C 354.906,307.027 355.573,306.027 355.5,304.5C 355.328,303.508 355.662,302.842 356.5,302.5C 357.906,302.027 358.573,301.027 358.5,299.5C 358.893,297.716 359.559,296.05 360.5,294.5C 363.469,292.38 364.802,289.38 364.5,285.5C 364.971,283.421 365.637,281.421 366.5,279.5C 367.458,279.047 368.292,278.381 369,277.5C 369.696,274.522 370.196,271.522 370.5,268.5C 371.924,266.485 372.59,264.152 372.5,261.5C 372.5,261.167 372.5,260.833 372.5,260.5C 374.074,258.898 374.741,256.898 374.5,254.5C 375.537,253.07 376.204,251.403 376.5,249.5 Z"/></g>
<g><path style="opacity:0.733" fill="#a85b84" d="M 376.5,246.5 C 376.5,247.5 376.5,248.5 376.5,249.5C 376.204,251.403 375.537,253.07 374.5,254.5C 374.565,251.572 375.232,248.905 376.5,246.5 Z"/></g>
<g><path style="opacity:1" fill="#208aa5" d="M 345.5,247.5 C 346.167,248.5 346.833,249.5 347.5,250.5C 347.5,252.833 347.5,255.167 347.5,257.5C 347.67,258.822 347.337,259.989 346.5,261C 330.881,264.152 315.215,266.985 299.5,269.5C 298.677,266.539 298.01,263.539 297.5,260.5C 313.47,257.039 329.47,253.706 345.5,250.5C 345.5,249.5 345.5,248.5 345.5,247.5 Z"/></g>
<g><path style="opacity:1" fill="#bfd538" d="M 104.5,233.5 C 105.404,234.209 105.737,235.209 105.5,236.5C 114.167,236.5 122.833,236.5 131.5,236.5C 130.671,241.131 130.004,245.798 129.5,250.5C 128.979,254.481 128.646,258.481 128.5,262.5C 127.532,264.607 127.198,266.941 127.5,269.5C 121.833,272.167 116.167,272.167 110.5,269.5C 108.039,257.613 106.039,245.613 104.5,233.5 Z"/></g>
<g><path style="opacity:0.682" fill="#cc8765" d="M 193.5,247.5 C 192.626,250.789 191.959,254.123 191.5,257.5C 189.208,263.303 187.208,269.303 185.5,275.5C 184.129,281.003 182.462,286.336 180.5,291.5C 179.359,294.254 178.025,296.921 176.5,299.5C 181.297,282.441 186.297,265.441 191.5,248.5C 192.167,248.167 192.833,247.833 193.5,247.5 Z"/></g>
<g><path style="opacity:0.627" fill="#a16283" d="M 374.5,254.5 C 374.741,256.898 374.074,258.898 372.5,260.5C 372.595,258.214 373.262,256.214 374.5,254.5 Z"/></g>
<g><path style="opacity:0.969" fill="#914a84" d="M 478.5,250.5 C 476.936,257.531 474.602,264.198 471.5,270.5C 472.557,263.997 474.224,257.664 476.5,251.5C 477.167,251.167 477.833,250.833 478.5,250.5 Z"/></g>
<g><path style="opacity:1" fill="#eb500b" d="M 238.5,254.5 C 239.162,258.466 239.495,262.466 239.5,266.5C 239.5,269.833 239.5,273.167 239.5,276.5C 238.835,274.631 238.169,272.631 237.5,270.5C 220.109,271.835 202.775,273.502 185.5,275.5C 187.208,269.303 189.208,263.303 191.5,257.5C 207.145,256.185 222.812,255.185 238.5,254.5 Z"/></g>
<g><path style="opacity:1" fill="#89a71c" d="M 184.5,255.5 C 183.454,261.686 181.787,267.686 179.5,273.5C 178.698,272.048 178.198,270.382 178,268.5C 176.5,269.667 175,270.833 173.5,272C 158.224,275.819 142.891,279.319 127.5,282.5C 127.5,285.5 127.5,288.5 127.5,291.5C 126.524,284.33 126.524,276.997 127.5,269.5C 127.198,266.941 127.532,264.607 128.5,262.5C 145.738,259.254 163.071,256.254 180.5,253.5C 182.114,253.803 183.448,254.47 184.5,255.5 Z"/></g>
<g><path style="opacity:0.631" fill="#a45f83" d="M 372.5,261.5 C 372.59,264.152 371.924,266.485 370.5,268.5C 370.41,265.848 371.076,263.515 372.5,261.5 Z"/></g>
<g><path style="opacity:1" fill="#2797aa" d="M 347.5,257.5 C 348.468,259.607 348.802,261.941 348.5,264.5C 348.5,266.833 348.5,269.167 348.5,271.5C 343.105,272.346 337.772,273.512 332.5,275C 324.356,278.659 316.023,281.826 307.5,284.5C 306.287,284.747 305.62,285.414 305.5,286.5C 303.263,282.466 301.596,278.132 300.5,273.5C 300.567,272.041 300.234,270.708 299.5,269.5C 315.215,266.985 330.881,264.152 346.5,261C 347.337,259.989 347.67,258.822 347.5,257.5 Z"/></g>
<g><path style="opacity:0.282" fill="#7c909b" d="M 295.5,258.5 C 296.5,258.833 297.167,259.5 297.5,260.5C 298.01,263.539 298.677,266.539 299.5,269.5C 300.234,270.708 300.567,272.041 300.5,273.5C 298.081,268.853 296.414,263.853 295.5,258.5 Z"/></g>
<g><path style="opacity:0.997" fill="#3cb5b8" d="M 347.5,250.5 C 353.833,250.5 360.167,250.5 366.5,250.5C 366.5,252.5 366.5,254.5 366.5,256.5C 363.062,272.839 356.729,287.839 347.5,301.5C 346.105,303.054 345.439,302.721 345.5,300.5C 346.586,297.58 347.252,294.58 347.5,291.5C 348.975,286.243 349.642,280.743 349.5,275C 349.499,271.317 349.165,267.817 348.5,264.5C 348.802,261.941 348.468,259.607 347.5,257.5C 347.5,255.167 347.5,252.833 347.5,250.5 Z"/></g>
<g><path style="opacity:0.999" fill="#b8ce3f" d="M 110.5,269.5 C 116.167,272.167 121.833,272.167 127.5,269.5C 126.524,276.997 126.524,284.33 127.5,291.5C 127.156,296.122 127.823,300.455 129.5,304.5C 130.191,310.549 132.524,315.882 136.5,320.5C 136.333,320.833 136.167,321.167 136,321.5C 135.184,320.177 134.017,319.511 132.5,319.5C 130.833,318.5 129.5,317.167 128.5,315.5C 128.446,313.368 127.446,312.035 125.5,311.5C 119.552,301.999 115.552,291.666 113.5,280.5C 113.741,278.102 113.074,276.102 111.5,274.5C 110.962,272.883 110.629,271.216 110.5,269.5 Z"/></g>
<g><path style="opacity:0.961" fill="#bb4d85" d="M 370.5,268.5 C 370.196,271.522 369.696,274.522 369,277.5C 368.292,278.381 367.458,279.047 366.5,279.5C 367.462,275.605 368.796,271.939 370.5,268.5 Z"/></g>
<g><path style="opacity:0.373" fill="#959b68" d="M 111.5,274.5 C 113.074,276.102 113.741,278.102 113.5,280.5C 112.262,278.786 111.595,276.786 111.5,274.5 Z"/></g>
<g><path style="opacity:1" fill="#e94309" d="M 239.5,276.5 C 239.5,276.833 239.5,277.167 239.5,277.5C 239.819,282.363 239.486,287.03 238.5,291.5C 238.66,289.801 238.494,288.134 238,286.5C 218.804,287.816 199.638,289.483 180.5,291.5C 182.462,286.336 184.129,281.003 185.5,275.5C 202.775,273.502 220.109,271.835 237.5,270.5C 238.169,272.631 238.835,274.631 239.5,276.5 Z"/></g>
<g><path style="opacity:0.999" fill="#29a3af" d="M 348.5,264.5 C 349.165,267.817 349.499,271.317 349.5,275C 349.642,280.743 348.975,286.243 347.5,291.5C 336.681,295.325 326.014,299.325 315.5,303.5C 310.91,298.665 307.577,292.998 305.5,286.5C 305.62,285.414 306.287,284.747 307.5,284.5C 316.023,281.826 324.356,278.659 332.5,275C 337.772,273.512 343.105,272.346 348.5,271.5C 348.5,269.167 348.5,266.833 348.5,264.5 Z"/></g>
<g><path style="opacity:1" fill="#f18223" d="M 239.5,266.5 C 240.434,267.568 240.768,268.901 240.5,270.5C 249.5,270.5 258.5,270.5 267.5,270.5C 267.5,271.833 267.5,273.167 267.5,274.5C 267.101,278.116 266.101,281.45 264.5,284.5C 263.076,286.515 262.41,288.848 262.5,291.5C 262.405,293.786 261.738,295.786 260.5,297.5C 260.5,296.167 260.5,294.833 260.5,293.5C 253.833,293.5 247.167,293.5 240.5,293.5C 240.821,287.974 240.488,282.64 239.5,277.5C 239.5,277.167 239.5,276.833 239.5,276.5C 239.5,273.167 239.5,269.833 239.5,266.5 Z"/></g>
<g><path style="opacity:0.294" fill="#7b6a86" d="M 467.5,280.5 C 467.598,282.553 466.931,284.22 465.5,285.5C 465.402,283.447 466.069,281.78 467.5,280.5 Z"/></g>
<g><path style="opacity:1" fill="#7d9c18" d="M 179.5,273.5 C 176.956,282.239 173.623,290.572 169.5,298.5C 168.739,297.609 167.739,296.942 166.5,296.5C 154.187,299.329 141.854,301.995 129.5,304.5C 127.823,300.455 127.156,296.122 127.5,291.5C 127.5,288.5 127.5,285.5 127.5,282.5C 142.891,279.319 158.224,275.819 173.5,272C 175,270.833 176.5,269.667 178,268.5C 178.198,270.382 178.698,272.048 179.5,273.5 Z"/></g>
<g><path style="opacity:1" fill="#5d125e" d="M 476.5,251.5 C 474.224,257.664 472.557,263.997 471.5,270.5C 470.737,274.137 469.403,277.47 467.5,280.5C 466.069,281.78 465.402,283.447 465.5,285.5C 465.672,286.492 465.338,287.158 464.5,287.5C 463.833,288.167 463.167,288.833 462.5,289.5C 462.5,288.5 462.5,287.5 462.5,286.5C 457.073,285.792 452.739,287.292 449.5,291C 438.834,298.002 427.834,304.502 416.5,310.5C 417.585,306.24 418.252,301.906 418.5,297.5C 419.687,294.054 420.354,290.387 420.5,286.5C 428.716,281.95 436.382,276.617 443.5,270.5C 449.22,266.119 455.22,262.119 461.5,258.5C 465.776,254.527 470.109,250.527 474.5,246.5C 475.167,246.167 475.833,245.833 476.5,245.5C 477.519,247.46 477.519,249.46 476.5,251.5 Z"/></g>
<g><path style="opacity:0.004" fill="#9c7f69" d="M 264.5,284.5 C 264.59,287.152 263.924,289.485 262.5,291.5C 262.41,288.848 263.076,286.515 264.5,284.5 Z"/></g>
<g><path style="opacity:0.173" fill="#7c6e89" d="M 464.5,287.5 C 464.293,290.241 463.293,292.574 461.5,294.5C 461.366,292.708 461.699,291.042 462.5,289.5C 463.167,288.833 463.833,288.167 464.5,287.5 Z"/></g>
<g><path style="opacity:0.999" fill="#34a9b1" d="M 347.5,291.5 C 347.252,294.58 346.586,297.58 345.5,300.5C 345.439,302.721 346.105,303.054 347.5,301.5C 342.096,312.467 333.763,315.634 322.5,311C 319.261,309.264 316.927,306.764 315.5,303.5C 326.014,299.325 336.681,295.325 347.5,291.5 Z"/></g>
<g><path style="opacity:0.969" fill="#b55584" d="M 364.5,285.5 C 364.802,289.38 363.469,292.38 360.5,294.5C 361.597,291.314 362.93,288.314 364.5,285.5 Z"/></g>
<g><path style="opacity:0.999" fill="#ee7728" d="M 239.5,277.5 C 240.488,282.64 240.821,287.974 240.5,293.5C 247.167,293.5 253.833,293.5 260.5,293.5C 260.5,294.833 260.5,296.167 260.5,297.5C 258.119,305.265 254.452,312.265 249.5,318.5C 249.5,317.5 249.5,316.5 249.5,315.5C 244.5,315.5 239.5,315.5 234.5,315.5C 234.5,314.5 234.5,313.5 234.5,312.5C 236.628,305.653 237.962,298.653 238.5,291.5C 239.486,287.03 239.819,282.363 239.5,277.5 Z"/></g>
<g><path style="opacity:1" fill="#759319" d="M 169.5,298.5 C 166.332,310.167 159.332,318.667 148.5,324C 142.115,325.684 136.781,324.184 132.5,319.5C 134.017,319.511 135.184,320.177 136,321.5C 136.167,321.167 136.333,320.833 136.5,320.5C 132.524,315.882 130.191,310.549 129.5,304.5C 141.854,301.995 154.187,299.329 166.5,296.5C 167.739,296.942 168.739,297.609 169.5,298.5 Z"/></g>
<g><path style="opacity:0.157" fill="#9a6982" d="M 358.5,299.5 C 358.573,301.027 357.906,302.027 356.5,302.5C 356.427,300.973 357.094,299.973 358.5,299.5 Z"/></g>
<g><path style="opacity:0.192" fill="#9b6882" d="M 355.5,304.5 C 355.573,306.027 354.906,307.027 353.5,307.5C 353.427,305.973 354.094,304.973 355.5,304.5 Z"/></g>
<g><path style="opacity:0.753" fill="#73558e" d="M 461.5,294.5 C 457.213,304.078 451.213,312.411 443.5,319.5C 445.322,315.487 447.822,311.82 451,308.5C 453.917,304.334 456.584,300.001 459,295.5C 459.671,294.748 460.504,294.414 461.5,294.5 Z"/></g>
<g><path style="opacity:1" fill="#e63207" d="M 238.5,291.5 C 237.962,298.653 236.628,305.653 234.5,312.5C 219.76,338.874 197.094,350.54 166.5,347.5C 164.585,347.784 162.919,347.451 161.5,346.5C 158.495,344.723 155.162,343.723 151.5,343.5C 149.847,343.34 148.514,342.674 147.5,341.5C 147.027,340.094 146.027,339.427 144.5,339.5C 144.027,338.094 143.027,337.427 141.5,337.5C 139.833,335.167 137.833,333.167 135.5,331.5C 135.842,330.662 136.508,330.328 137.5,330.5C 138.492,330.328 139.158,330.662 139.5,331.5C 141.117,332.972 143.117,333.639 145.5,333.5C 147.883,333.639 149.883,332.972 151.5,331.5C 152.209,330.596 153.209,330.263 154.5,330.5C 156.027,330.573 157.027,329.906 157.5,328.5C 159.833,328.167 161.167,326.833 161.5,324.5C 161.833,323.5 162.5,322.833 163.5,322.5C 165.262,321.738 166.262,320.404 166.5,318.5C 167.906,318.027 168.573,317.027 168.5,315.5C 168.66,313.847 169.326,312.514 170.5,311.5C 171.906,311.027 172.573,310.027 172.5,308.5C 173.042,305.088 174.375,302.088 176.5,299.5C 178.025,296.921 179.359,294.254 180.5,291.5C 199.638,289.483 218.804,287.816 238,286.5C 238.494,288.134 238.66,289.801 238.5,291.5 Z"/></g>
<g><path style="opacity:0.298" fill="#a06482" d="M 353.5,307.5 C 353.573,309.027 352.906,310.027 351.5,310.5C 351.427,308.973 352.094,307.973 353.5,307.5 Z"/></g>
<g><path style="opacity:0.149" fill="#9f7462" d="M 172.5,308.5 C 172.573,310.027 171.906,311.027 170.5,311.5C 170.427,309.973 171.094,308.973 172.5,308.5 Z"/></g>
<g><path style="opacity:0.753" fill="#99a066" d="M 125.5,311.5 C 127.446,312.035 128.446,313.368 128.5,315.5C 127.026,314.564 126.026,313.23 125.5,311.5 Z"/></g>
<g><path style="opacity:1" fill="#541459" d="M 462.5,289.5 C 461.699,291.042 461.366,292.708 461.5,294.5C 460.504,294.414 459.671,294.748 459,295.5C 456.584,300.001 453.917,304.334 451,308.5C 447.822,311.82 445.322,315.487 443.5,319.5C 442.167,320.167 441.167,321.167 440.5,322.5C 436.626,323.369 433.959,325.703 432.5,329.5C 432.5,330.167 432.167,330.5 431.5,330.5C 429.973,330.427 428.973,331.094 428.5,332.5C 409.974,345.216 389.64,349.882 367.5,346.5C 370.279,346.721 372.946,346.388 375.5,345.5C 379.913,345.313 384.246,344.646 388.5,343.5C 395.433,341.208 401.1,337.208 405.5,331.5C 410.486,325.194 414.153,318.194 416.5,310.5C 427.834,304.502 438.834,298.002 449.5,291C 452.739,287.292 457.073,285.792 462.5,286.5C 462.5,287.5 462.5,288.5 462.5,289.5 Z"/></g>
<g><path style="opacity:0.999" fill="#e02f88" d="M 343.5,339.5 C 343.027,338.094 342.027,337.427 340.5,337.5C 339.508,337.672 338.842,337.338 338.5,336.5C 338.027,335.094 337.027,334.427 335.5,334.5C 334.738,332.738 333.404,331.738 331.5,331.5C 328.097,329.1 325.43,326.1 323.5,322.5C 323.5,321.167 324.167,320.5 325.5,320.5C 331.346,321.667 337.012,321 342.5,318.5C 344.027,318.573 345.027,317.906 345.5,316.5C 347.044,316.297 348.378,315.63 349.5,314.5C 350.498,323.141 350.831,331.808 350.5,340.5C 348.194,340.007 345.861,339.674 343.5,339.5 Z"/></g>
<g><path style="opacity:0.998" fill="#e66e31" d="M 234.5,312.5 C 234.5,313.5 234.5,314.5 234.5,315.5C 239.5,315.5 244.5,315.5 249.5,315.5C 249.5,316.5 249.5,317.5 249.5,318.5C 248.876,320.754 247.543,322.421 245.5,323.5C 244.094,323.973 243.427,324.973 243.5,326.5C 241.833,328.833 239.833,330.833 237.5,332.5C 235.973,332.427 234.973,333.094 234.5,334.5C 226.947,341.61 217.947,346.11 207.5,348C 193.652,350.155 179.985,349.989 166.5,347.5C 197.094,350.54 219.76,338.874 234.5,312.5 Z"/></g>
<g><path style="opacity:0.275" fill="#a76d59" d="M 168.5,315.5 C 168.573,317.027 167.906,318.027 166.5,318.5C 166.427,316.973 167.094,315.973 168.5,315.5 Z"/></g>
<g><path style="opacity:0.404" fill="#9f6582" d="M 345.5,316.5 C 345.027,317.906 344.027,318.573 342.5,318.5C 342.973,317.094 343.973,316.427 345.5,316.5 Z"/></g>
<g><path style="opacity:0.376" fill="#a56b59" d="M 166.5,318.5 C 166.262,320.404 165.262,321.738 163.5,322.5C 163.738,320.596 164.738,319.262 166.5,318.5 Z"/></g>
<g><path style="opacity:0.639" fill="#a96382" d="M 325.5,320.5 C 324.167,320.5 323.5,321.167 323.5,322.5C 321.727,321.686 321.227,320.352 322,318.5C 323.302,319.085 324.469,319.751 325.5,320.5 Z"/></g>
<g><path style="opacity:0.004" fill="#7b7283" d="M 443.5,319.5 C 443.5,321.5 442.5,322.5 440.5,322.5C 441.167,321.167 442.167,320.167 443.5,319.5 Z"/></g>
<g><path style="opacity:0.004" fill="#947c6f" d="M 245.5,323.5 C 245.573,325.027 244.906,326.027 243.5,326.5C 243.427,324.973 244.094,323.973 245.5,323.5 Z"/></g>
<g><path style="opacity:0.773" fill="#6f5387" d="M 440.5,322.5 C 438.431,325.573 435.764,327.906 432.5,329.5C 433.959,325.703 436.626,323.369 440.5,322.5 Z"/></g>
<g><path style="opacity:0.694" fill="#c06443" d="M 161.5,324.5 C 161.167,326.833 159.833,328.167 157.5,328.5C 158.5,326.833 159.833,325.5 161.5,324.5 Z"/></g>
<g><path style="opacity:0.361" fill="#9e7565" d="M 137.5,330.5 C 136.508,330.328 135.842,330.662 135.5,331.5C 133.668,330.86 133.335,329.86 134.5,328.5C 135.739,328.942 136.739,329.609 137.5,330.5 Z"/></g>
<g><path style="opacity:0.6" fill="#b67051" d="M 157.5,328.5 C 157.027,329.906 156.027,330.573 154.5,330.5C 154.973,329.094 155.973,328.427 157.5,328.5 Z"/></g>
<g><path style="opacity:0.549" fill="#a56382" d="M 331.5,331.5 C 333.404,331.738 334.738,332.738 335.5,334.5C 333.596,334.262 332.262,333.262 331.5,331.5 Z"/></g>
<g><path style="opacity:0.004" fill="#7c7682" d="M 431.5,330.5 C 431.027,331.906 430.027,332.573 428.5,332.5C 428.973,331.094 429.973,330.427 431.5,330.5 Z"/></g>
<g><path style="opacity:0.004" fill="#9d7868" d="M 135.5,331.5 C 137.833,333.167 139.833,335.167 141.5,337.5C 138.5,336.5 136.5,334.5 135.5,331.5 Z"/></g>
<g><path style="opacity:0.659" fill="#b97553" d="M 139.5,331.5 C 143.5,332.833 147.5,332.833 151.5,331.5C 149.883,332.972 147.883,333.639 145.5,333.5C 143.117,333.639 141.117,332.972 139.5,331.5 Z"/></g>
<g><path style="opacity:0.004" fill="#937c70" d="M 237.5,332.5 C 237.027,333.906 236.027,334.573 234.5,334.5C 234.973,333.094 235.973,332.427 237.5,332.5 Z"/></g>
<g><path style="opacity:0.227" fill="#9e6782" d="M 335.5,334.5 C 337.027,334.427 338.027,335.094 338.5,336.5C 336.973,336.573 335.973,335.906 335.5,334.5 Z"/></g>
<g><path style="opacity:0.392" fill="#b27557" d="M 141.5,337.5 C 143.027,337.427 144.027,338.094 144.5,339.5C 142.973,339.573 141.973,338.906 141.5,337.5 Z"/></g>
<g><path style="opacity:0.153" fill="#9a6981" d="M 340.5,337.5 C 342.027,337.427 343.027,338.094 343.5,339.5C 341.973,339.573 340.973,338.906 340.5,337.5 Z"/></g>
<g><path style="opacity:0.259" fill="#a9775f" d="M 144.5,339.5 C 146.027,339.427 147.027,340.094 147.5,341.5C 145.973,341.573 144.973,340.906 144.5,339.5 Z"/></g>
<g><path style="opacity:0.761" fill="#b77555" d="M 151.5,343.5 C 155.162,343.723 158.495,344.723 161.5,346.5C 157.838,346.277 154.505,345.277 151.5,343.5 Z"/></g>
<g><path style="opacity:0.655" fill="#a95d83" d="M 354.5,343.5 C 357.428,343.565 360.095,344.232 362.5,345.5C 359.505,345.706 356.838,345.04 354.5,343.5 Z"/></g>
</svg>
