<?xml version="1.0" encoding="UTF-8"?>
<!DOCTYPE svg PUBLIC "-//W3C//DTD SVG 1.1//EN" "http://www.w3.org/Graphics/SVG/1.1/DTD/svg11.dtd">
<svg xmlns="http://www.w3.org/2000/svg" version="1.1" width="627px" height="400px" style="shape-rendering:geometricPrecision; text-rendering:geometricPrecision; image-rendering:optimizeQuality; fill-rule:evenodd; clip-rule:evenodd" xmlns:xlink="http://www.w3.org/1999/xlink">
<g><path style="opacity:0.759" fill="#b65884" d="M 379.5,41.5 C 310.489,41.197 241.489,41.5304 172.5,42.5C 176.921,41.0554 181.588,40.222 186.5,40C 247.833,39.3333 309.167,39.3333 370.5,40C 373.695,40.1805 376.695,40.6805 379.5,41.5 Z"/></g>
<g><path style="opacity:0.71" fill="#ae5884" d="M 172.5,42.5 C 170.485,43.9238 168.152,44.5905 165.5,44.5C 167.515,43.0762 169.848,42.4095 172.5,42.5 Z"/></g>
<g><path style="opacity:1" fill="#d82c89" d="M 379.5,41.5 C 387.61,42.426 395.277,44.7594 402.5,48.5C 361.505,49.8333 320.172,50.4999 278.5,50.5C 237.167,50.3333 195.833,50.1667 154.5,50C 155.056,49.6174 155.389,49.1174 155.5,48.5C 158.37,46.2057 161.703,44.8723 165.5,44.5C 168.152,44.5905 170.485,43.9238 172.5,42.5C 241.489,41.5304 310.489,41.197 379.5,41.5 Z"/></g>
<g><path style="opacity:1" fill="#d02c8a" d="M 155.5,48.5 C 155.389,49.1174 155.056,49.6174 154.5,50C 195.833,50.1667 237.167,50.3333 278.5,50.5C 320.172,50.4999 361.505,49.8333 402.5,48.5C 403.833,49.1667 405.167,49.8333 406.5,50.5C 406.821,52.0481 407.821,52.7148 409.5,52.5C 410.71,52.9321 411.71,53.5987 412.5,54.5C 368.172,55.8333 323.505,56.4999 278.5,56.5C 233.833,56.3333 189.167,56.1667 144.5,56C 145.381,55.2917 146.047,54.4584 146.5,53.5C 149.008,51.0764 152.008,49.4097 155.5,48.5 Z"/></g>
<g><path style="opacity:0.718" fill="#a36183" d="M 406.5,50.5 C 407.71,50.9321 408.71,51.5987 409.5,52.5C 407.821,52.7148 406.821,52.0481 406.5,50.5 Z"/></g>
<g><path style="opacity:1" fill="#ca2d8b" d="M 146.5,53.5 C 146.047,54.4584 145.381,55.2917 144.5,56C 189.167,56.1667 233.833,56.3333 278.5,56.5C 323.505,56.4999 368.172,55.8333 412.5,54.5C 414.23,55.0256 415.564,56.0256 416.5,57.5C 417.035,59.4456 418.368,60.4456 420.5,60.5C 326.173,62.4976 231.506,63.1643 136.5,62.5C 137.5,61.1667 138.5,59.8333 139.5,58.5C 141.296,56.1 143.63,54.4333 146.5,53.5 Z"/></g>
<g><path style="opacity:0.384" fill="#9e6284" d="M 416.5,57.5 C 418.23,58.0256 419.564,59.0256 420.5,60.5C 418.368,60.4456 417.035,59.4456 416.5,57.5 Z"/></g>
<g><path style="opacity:0.604" fill="#a15c84" d="M 139.5,58.5 C 138.5,59.8333 137.5,61.1667 136.5,62.5C 135.833,62.5 135.167,62.5 134.5,62.5C 135.585,60.4131 137.251,59.0798 139.5,58.5 Z"/></g>
<g><path style="opacity:1" fill="#c42d8c" d="M 420.5,60.5 C 422.167,61.5 423.5,62.8333 424.5,64.5C 424.414,65.4959 424.748,66.3292 425.5,67C 327.5,67.6667 229.5,67.6667 131.5,67C 132.252,66.3292 132.586,65.4959 132.5,64.5C 132.833,63.5 133.5,62.8333 134.5,62.5C 135.167,62.5 135.833,62.5 136.5,62.5C 231.506,63.1643 326.173,62.4976 420.5,60.5 Z"/></g>
<g><path style="opacity:1" fill="#be2e8c" d="M 132.5,64.5 C 132.586,65.4959 132.252,66.3292 131.5,67C 229.5,67.6667 327.5,67.6667 425.5,67C 424.748,66.3292 424.414,65.4959 424.5,64.5C 426.167,65.5 427.5,66.8333 428.5,68.5C 428.557,69.609 428.89,70.609 429.5,71.5C 328.833,72.8333 228.167,72.8333 127.5,71.5C 128.925,70.078 129.925,68.4113 130.5,66.5C 130.833,65.5 131.5,64.8333 132.5,64.5 Z"/></g>
<g><path style="opacity:0.459" fill="#9a6084" d="M 130.5,66.5 C 129.925,68.4113 128.925,70.078 127.5,71.5C 127.167,71.5 126.833,71.5 126.5,71.5C 127.08,69.2512 128.413,67.5846 130.5,66.5 Z"/></g>
<g><path style="opacity:0.431" fill="#946683" d="M 428.5,68.5 C 429.906,68.9731 430.573,69.9731 430.5,71.5C 430.167,71.5 429.833,71.5 429.5,71.5C 428.89,70.609 428.557,69.609 428.5,68.5 Z"/></g>
<g><path style="opacity:1" fill="#b82f8d" d="M 126.5,71.5 C 126.833,71.5 127.167,71.5 127.5,71.5C 228.167,72.8333 328.833,72.8333 429.5,71.5C 429.833,71.5 430.167,71.5 430.5,71.5C 432.262,72.2623 433.262,73.5956 433.5,75.5C 433.5,76.5 433.5,77.5 433.5,78.5C 329.833,78.5 226.167,78.5 122.5,78.5C 122.5,77.8333 122.5,77.1667 122.5,76.5C 123.906,76.0269 124.573,75.0269 124.5,73.5C 124.833,72.5 125.5,71.8333 126.5,71.5 Z"/></g>
<g><path style="opacity:0.2" fill="#8f6a83" d="M 124.5,73.5 C 124.573,75.0269 123.906,76.0269 122.5,76.5C 122.427,74.9731 123.094,73.9731 124.5,73.5 Z"/></g>
<g><path style="opacity:1" fill="#b1308e" d="M 433.5,75.5 C 435.822,76.8021 437.155,78.8021 437.5,81.5C 437.5,82.1667 437.5,82.8333 437.5,83.5C 331.5,84.8333 225.5,84.8333 119.5,83.5C 119.5,82.8333 119.5,82.1667 119.5,81.5C 119.328,80.5084 119.662,79.8417 120.5,79.5C 121.167,79.1667 121.833,78.8333 122.5,78.5C 226.167,78.5 329.833,78.5 433.5,78.5C 433.5,77.5 433.5,76.5 433.5,75.5 Z"/></g>
<g><path style="opacity:0.2" fill="#8f6983" d="M 122.5,76.5 C 122.5,77.1667 122.5,77.8333 122.5,78.5C 121.833,78.8333 121.167,79.1667 120.5,79.5C 120.427,77.9731 121.094,76.9731 122.5,76.5 Z"/></g>
<g><path style="opacity:0.173" fill="#8d6883" d="M 119.5,81.5 C 119.5,82.1667 119.5,82.8333 119.5,83.5C 118.833,83.8333 118.167,84.1667 117.5,84.5C 117.427,82.9731 118.094,81.9731 119.5,81.5 Z"/></g>
<g><path style="opacity:0.145" fill="#8b6c82" d="M 437.5,81.5 C 438.906,81.9731 439.573,82.9731 439.5,84.5C 438.833,84.1667 438.167,83.8333 437.5,83.5C 437.5,82.8333 437.5,82.1667 437.5,81.5 Z"/></g>
<g><path style="opacity:1" fill="#ab338e" d="M 119.5,83.5 C 225.5,84.8333 331.5,84.8333 437.5,83.5C 438.167,83.8333 438.833,84.1667 439.5,84.5C 439.286,86.1439 439.62,87.6439 440.5,89C 381.43,89.829 322.43,89.6623 263.5,88.5C 259.833,88.5 256.167,88.5 252.5,88.5C 240.5,88.5 228.5,88.5 216.5,88.5C 211.807,88.5401 207.141,88.8734 202.5,89.5C 173.831,89.6666 145.165,89.5 116.5,89C 117.38,87.6439 117.714,86.1439 117.5,84.5C 118.167,84.1667 118.833,83.8333 119.5,83.5 Z"/></g>
<g><path style="opacity:0.178" fill="#896e82" d="M 252.5,88.5 C 256.167,88.5 259.833,88.5 263.5,88.5C 263.672,89.4916 263.338,90.1583 262.5,90.5C 259.167,89.8333 255.833,89.1667 252.5,88.5 Z"/></g>
<g><path style="opacity:0.086" fill="#896f82" d="M 216.5,88.5 C 212.036,89.6437 207.37,90.3104 202.5,90.5C 202.5,90.1667 202.5,89.8333 202.5,89.5C 207.141,88.8734 211.807,88.5401 216.5,88.5 Z"/></g>
<g><path style="opacity:1" fill="#a3338f" d="M 439.5,84.5 C 440.674,85.5137 441.34,86.847 441.5,88.5C 441.674,90.861 442.007,93.1944 442.5,95.5C 410.655,95.7925 378.822,95.4591 347,94.5C 342.932,94.5935 339.099,95.2602 335.5,96.5C 330.187,97.8283 324.854,99.1616 319.5,100.5C 299.489,100.833 279.489,100.5 259.5,99.5C 260.309,97.9291 260.643,96.2624 260.5,94.5C 260.66,92.847 261.326,91.5137 262.5,90.5C 263.338,90.1583 263.672,89.4916 263.5,88.5C 322.43,89.6623 381.43,89.829 440.5,89C 439.62,87.6439 439.286,86.1439 439.5,84.5 Z"/></g>
<g><path style="opacity:1" fill="#9e368f" d="M 117.5,84.5 C 117.714,86.1439 117.38,87.6439 116.5,89C 145.165,89.5 173.831,89.6666 202.5,89.5C 202.5,89.8333 202.5,90.1667 202.5,90.5C 195.6,92.462 188.6,94.462 181.5,96.5C 178.918,96.0254 176.918,96.6921 175.5,98.5C 170.484,101.674 165.151,104.341 159.5,106.5C 143.167,106.5 126.833,106.5 110.5,106.5C 110.993,104.194 111.326,101.861 111.5,99.5C 112.704,94.1046 114.704,89.1046 117.5,84.5 Z"/></g>
<g><path style="opacity:0.955" fill="#935888" d="M 181.5,96.5 C 179.786,97.7384 177.786,98.405 175.5,98.5C 176.918,96.6921 178.918,96.0254 181.5,96.5 Z"/></g>
<g><path style="opacity:0.387" fill="#b29c53" d="M 215.5,100.5 C 224.986,99.5062 234.652,99.1729 244.5,99.5C 244.737,100.791 244.404,101.791 243.5,102.5C 234.56,100.528 225.227,99.8611 215.5,100.5 Z"/></g>
<g><path style="opacity:0.999" fill="#963a90" d="M 260.5,94.5 C 260.643,96.2624 260.309,97.9291 259.5,99.5C 279.489,100.5 299.489,100.833 319.5,100.5C 310.901,104.127 302.235,107.794 293.5,111.5C 279.833,111.5 266.167,111.5 252.5,111.5C 254.93,105.643 257.597,99.9768 260.5,94.5 Z"/></g>
<g><path style="opacity:0.999" fill="#9a3690" d="M 441.5,88.5 C 444.14,93.085 445.806,98.085 446.5,103.5C 446.586,104.496 446.252,105.329 445.5,106C 421.502,106.5 397.502,106.667 373.5,106.5C 371.754,104.748 369.754,103.415 367.5,102.5C 367.027,101.094 366.027,100.427 364.5,100.5C 355.201,96.9232 345.534,95.5899 335.5,96.5C 339.099,95.2602 342.932,94.5935 347,94.5C 378.822,95.4591 410.655,95.7925 442.5,95.5C 442.007,93.1944 441.674,90.861 441.5,88.5 Z"/></g>
<g><path style="opacity:1" fill="#f8c318" d="M 215.5,100.5 C 225.227,99.8611 234.56,100.528 243.5,102.5C 240.016,111.464 236.016,120.131 231.5,128.5C 231.265,127.903 230.765,127.57 230,127.5C 209.836,134.277 189.669,140.944 169.5,147.5C 186.273,130.11 205.273,115.61 226.5,104C 186.238,108.295 154.238,126.795 130.5,159.5C 123.765,167.304 117.765,175.637 112.5,184.5C 112.265,183.903 111.765,183.57 111,183.5C 109.333,184.167 107.667,184.833 106,185.5C 104.97,185.164 104.47,184.497 104.5,183.5C 105.11,182.609 105.443,181.609 105.5,180.5C 105.328,179.508 105.662,178.842 106.5,178.5C 108.408,177.514 109.408,175.848 109.5,173.5C 110.906,173.027 111.573,172.027 111.5,170.5C 113.369,168.966 114.702,166.966 115.5,164.5C 116.906,164.027 117.573,163.027 117.5,161.5C 118.906,161.027 119.573,160.027 119.5,158.5C 120.906,158.027 121.573,157.027 121.5,155.5C 121.833,154.5 122.5,153.833 123.5,153.5C 125.262,152.738 126.262,151.404 126.5,149.5C 126.833,148.5 127.5,147.833 128.5,147.5C 133.833,142.833 138.833,137.833 143.5,132.5C 146.089,131.581 148.089,129.914 149.5,127.5C 151.404,127.262 152.738,126.262 153.5,124.5C 155.404,124.262 156.738,123.262 157.5,121.5C 159.027,121.573 160.027,120.906 160.5,119.5C 160.842,118.662 161.508,118.328 162.5,118.5C 164.027,118.573 165.027,117.906 165.5,116.5C 169.182,113.992 173.182,111.992 177.5,110.5C 179.698,110.88 181.365,110.213 182.5,108.5C 184.698,108.88 186.365,108.213 187.5,106.5C 187.833,106.5 188.167,106.5 188.5,106.5C 191.916,106.472 194.916,105.472 197.5,103.5C 203.341,101.733 209.341,100.733 215.5,100.5 Z"/></g>
<g><path style="opacity:0.251" fill="#896784" d="M 364.5,100.5 C 366.027,100.427 367.027,101.094 367.5,102.5C 365.973,102.573 364.973,101.906 364.5,100.5 Z"/></g>
<g><path style="opacity:0.604" fill="#896286" d="M 111.5,99.5 C 111.326,101.861 110.993,104.194 110.5,106.5C 110.5,107.167 110.167,107.5 109.5,107.5C 109.294,104.505 109.96,101.838 111.5,99.5 Z"/></g>
<g><path style="opacity:1" fill="#fde284" d="M 169.5,147.5 C 168.5,148.167 167.5,148.833 166.5,149.5C 166.44,148.957 166.107,148.624 165.5,148.5C 153.997,152.779 142.331,156.446 130.5,159.5C 154.238,126.795 186.238,108.295 226.5,104C 205.273,115.61 186.273,130.11 169.5,147.5 Z"/></g>
<g><path style="opacity:0.318" fill="#866a84" d="M 367.5,102.5 C 369.754,103.415 371.754,104.748 373.5,106.5C 373.5,107.167 373.5,107.833 373.5,108.5C 371.167,106.833 369.167,104.833 367.5,102.5 Z"/></g>
<g><path style="opacity:0.71" fill="#baa14f" d="M 197.5,103.5 C 194.916,105.472 191.916,106.472 188.5,106.5C 191.215,104.928 194.215,103.928 197.5,103.5 Z"/></g>
<g><path style="opacity:0.733" fill="#b79e53" d="M 187.5,106.5 C 186.365,108.213 184.698,108.88 182.5,108.5C 183.93,107.463 185.597,106.796 187.5,106.5 Z"/></g>
<g><path style="opacity:1" fill="#f5b61d" d="M 352.5,108.5 C 353.552,110.256 355.219,110.923 357.5,110.5C 359.153,110.66 360.486,111.326 361.5,112.5C 361.5,113.833 361.5,115.167 361.5,116.5C 358.006,116.532 355.339,117.865 353.5,120.5C 346.526,115.33 338.859,114.164 330.5,117C 309.208,126.641 288.875,137.808 269.5,150.5C 269.265,149.903 268.765,149.57 268,149.5C 260.584,152.139 253.084,154.472 245.5,156.5C 246.167,155.5 246.833,154.5 247.5,153.5C 249.027,153.573 250.027,152.906 250.5,151.5C 252.404,151.262 253.738,150.262 254.5,148.5C 256.027,148.573 257.027,147.906 257.5,146.5C 259.027,146.573 260.027,145.906 260.5,144.5C 262.027,144.573 263.027,143.906 263.5,142.5C 265.027,142.573 266.027,141.906 266.5,140.5C 266.842,139.662 267.508,139.328 268.5,139.5C 270.027,139.573 271.027,138.906 271.5,137.5C 273.027,137.573 274.027,136.906 274.5,135.5C 274.842,134.662 275.508,134.328 276.5,134.5C 278.027,134.573 279.027,133.906 279.5,132.5C 279.842,131.662 280.508,131.328 281.5,131.5C 283.027,131.573 284.027,130.906 284.5,129.5C 285.514,128.326 286.847,127.66 288.5,127.5C 290.027,127.573 291.027,126.906 291.5,125.5C 296.516,122.326 301.849,119.659 307.5,117.5C 309.698,117.88 311.365,117.213 312.5,115.5C 313.93,114.463 315.597,113.796 317.5,113.5C 322.165,112.943 326.498,111.61 330.5,109.5C 334.742,108.032 339.242,107.366 344,107.5C 347.021,107.502 349.854,107.836 352.5,108.5 Z"/></g>
<g><path style="opacity:0.812" fill="#bfa34d" d="M 182.5,108.5 C 181.365,110.213 179.698,110.88 177.5,110.5C 178.93,109.463 180.597,108.796 182.5,108.5 Z"/></g>
<g><path style="opacity:0.975" fill="#cea343" d="M 352.5,108.5 C 354.553,108.402 356.22,109.069 357.5,110.5C 355.219,110.923 353.552,110.256 352.5,108.5 Z"/></g>
<g><path style="opacity:0.999" fill="#8e3991" d="M 110.5,106.5 C 126.833,106.5 143.167,106.5 159.5,106.5C 153.377,111.068 147.044,115.401 140.5,119.5C 130.554,117.525 120.221,116.858 109.5,117.5C 109.5,114.167 109.5,110.833 109.5,107.5C 110.167,107.5 110.5,107.167 110.5,106.5 Z"/></g>
<g><path style="opacity:1" fill="#8e3691" d="M 446.5,103.5 C 447.434,104.568 447.768,105.901 447.5,107.5C 447.342,110.902 447.676,114.236 448.5,117.5C 424.759,117.823 401.092,117.489 377.5,116.5C 376.199,113.899 374.866,111.232 373.5,108.5C 373.5,107.833 373.5,107.167 373.5,106.5C 397.502,106.667 421.502,106.5 445.5,106C 446.252,105.329 446.586,104.496 446.5,103.5 Z"/></g>
<g><path style="opacity:0.004" fill="#82807d" d="M 594.5,112.5 C 598.311,111.355 602.311,111.188 606.5,112C 607.712,113.107 607.379,113.607 605.5,113.5C 602.038,112.518 598.371,112.185 594.5,112.5 Z"/></g>
<g><path style="opacity:0.722" fill="#bb9b4f" d="M 330.5,109.5 C 326.498,111.61 322.165,112.943 317.5,113.5C 321.502,111.39 325.835,110.057 330.5,109.5 Z"/></g>
<g><path style="opacity:0.643" fill="#b88752" d="M 569.5,113.5 C 577.65,112.507 585.983,112.174 594.5,112.5C 598.371,112.185 602.038,112.518 605.5,113.5C 603.735,114.461 601.735,114.795 599.5,114.5C 589.681,113.506 579.681,113.173 569.5,113.5 Z"/></g>
<g><path style="opacity:0.999" fill="#f19123" d="M 555.5,114.5 C 559.97,113.514 564.637,113.181 569.5,113.5C 579.681,113.173 589.681,113.506 599.5,114.5C 583.226,118.653 566.893,122.987 550.5,127.5C 547.848,127.41 545.515,128.076 543.5,129.5C 525.152,136.286 506.819,143.286 488.5,150.5C 488.265,149.903 487.765,149.57 487,149.5C 436.619,166.35 386.119,182.683 335.5,198.5C 355.129,187.186 375.462,177.186 396.5,168.5C 451.901,150.978 507.235,133.144 562.5,115C 560.19,114.503 557.857,114.337 555.5,114.5 Z"/></g>
<g><path style="opacity:0.702" fill="#856386" d="M 447.5,107.5 C 449.163,112.12 449.497,116.787 448.5,121.5C 448.5,120.167 448.5,118.833 448.5,117.5C 447.676,114.236 447.342,110.902 447.5,107.5 Z"/></g>
<g><path style="opacity:0.788" fill="#bc9c50" d="M 312.5,115.5 C 311.365,117.213 309.698,117.88 307.5,117.5C 308.93,116.463 310.597,115.796 312.5,115.5 Z"/></g>
<g><path style="opacity:0.494" fill="#ae9957" d="M 165.5,116.5 C 165.027,117.906 164.027,118.573 162.5,118.5C 162.973,117.094 163.973,116.427 165.5,116.5 Z"/></g>
<g><path style="opacity:0.999" fill="#863d91" d="M 252.5,111.5 C 266.167,111.5 279.833,111.5 293.5,111.5C 282.372,117.565 271.372,123.899 260.5,130.5C 255.684,129.674 250.684,129.174 245.5,129C 246.38,127.644 246.714,126.144 246.5,124.5C 248.13,119.919 250.13,115.586 252.5,111.5 Z"/></g>
<g><path style="opacity:0.412" fill="#a7955d" d="M 160.5,119.5 C 160.027,120.906 159.027,121.573 157.5,121.5C 157.973,120.094 158.973,119.427 160.5,119.5 Z"/></g>
<g><path style="opacity:0.998" fill="#7e3c92" d="M 109.5,107.5 C 109.5,110.833 109.5,114.167 109.5,117.5C 120.221,116.858 130.554,117.525 140.5,119.5C 133.193,126.472 125.86,133.472 118.5,140.5C 117.094,140.973 116.427,141.973 116.5,143.5C 116.167,144.5 115.5,145.167 114.5,145.5C 113.094,145.973 112.427,146.973 112.5,148.5C 111.488,149.872 110.488,151.205 109.5,152.5C 108.505,139.677 108.171,126.677 108.5,113.5C 108.205,111.265 108.539,109.265 109.5,107.5 Z"/></g>
<g><path style="opacity:0.408" fill="#af9a57" d="M 157.5,121.5 C 156.738,123.262 155.404,124.262 153.5,124.5C 154.262,122.738 155.596,121.738 157.5,121.5 Z"/></g>
<g><path style="opacity:0.999" fill="#823a92" d="M 377.5,116.5 C 401.092,117.489 424.759,117.823 448.5,117.5C 448.5,118.833 448.5,120.167 448.5,121.5C 440.11,124.739 431.443,127.406 422.5,129.5C 408.167,129.5 393.833,129.5 379.5,129.5C 379.81,126.287 379.477,123.287 378.5,120.5C 377.566,119.432 377.232,118.099 377.5,116.5 Z"/></g>
<g><path style="opacity:1" fill="#f9b116" d="M 361.5,112.5 C 363.822,113.802 365.155,115.802 365.5,118.5C 365.5,122.833 365.5,127.167 365.5,131.5C 332.818,141.839 300.151,152.172 267.5,162.5C 294.25,142.782 322.917,128.782 353.5,120.5C 355.339,117.865 358.006,116.532 361.5,116.5C 361.5,115.167 361.5,113.833 361.5,112.5 Z"/></g>
<g><path style="opacity:0.518" fill="#b89f50" d="M 153.5,124.5 C 152.738,126.262 151.404,127.262 149.5,127.5C 150.262,125.738 151.596,124.738 153.5,124.5 Z"/></g>
<g><path style="opacity:0.459" fill="#a9925c" d="M 291.5,125.5 C 291.027,126.906 290.027,127.573 288.5,127.5C 288.973,126.094 289.973,125.427 291.5,125.5 Z"/></g>
<g><path style="opacity:0.616" fill="#b48c55" d="M 482.5,125.5 C 479.781,126.913 476.781,127.58 473.5,127.5C 476.219,126.087 479.219,125.42 482.5,125.5 Z"/></g>
<g><path style="opacity:1" fill="#fac887" d="M 396.5,168.5 C 375.462,177.186 355.129,187.186 335.5,198.5C 322.061,205.387 309.061,213.054 296.5,221.5C 295.707,220.645 296.04,219.811 297.5,219C 301.975,216.35 305.975,213.183 309.5,209.5C 318.713,203.4 327.713,197.067 336.5,190.5C 393.494,155.556 455.161,133.389 521.5,124C 478.251,134.802 436.585,149.636 396.5,168.5 Z"/></g>
<g><path style="opacity:1" fill="#f9bd15" d="M 231.5,128.5 C 229.282,135.266 226.282,141.599 222.5,147.5C 196.95,155.28 171.617,163.614 146.5,172.5C 153.167,164.833 159.833,157.167 166.5,149.5C 167.5,148.833 168.5,148.167 169.5,147.5C 189.669,140.944 209.836,134.277 230,127.5C 230.765,127.57 231.265,127.903 231.5,128.5 Z"/></g>
<g><path style="opacity:1" fill="#fcd886" d="M 353.5,120.5 C 322.917,128.782 294.25,142.782 267.5,162.5C 255.025,170.24 242.691,178.24 230.5,186.5C 230.265,185.903 229.765,185.57 229,185.5C 224.921,187.711 220.755,188.711 216.5,188.5C 233.586,175.09 251.252,162.423 269.5,150.5C 288.875,137.808 309.208,126.641 330.5,117C 338.859,114.164 346.526,115.33 353.5,120.5 Z"/></g>
<g><path style="opacity:0.004" fill="#96826e" d="M 550.5,127.5 C 548.485,128.924 546.152,129.59 543.5,129.5C 545.515,128.076 547.848,127.41 550.5,127.5 Z"/></g>
<g><path style="opacity:0.714" fill="#c3a549" d="M 149.5,127.5 C 148.089,129.914 146.089,131.581 143.5,132.5C 144.911,130.086 146.911,128.419 149.5,127.5 Z"/></g>
<g><path style="opacity:0.486" fill="#ac9359" d="M 284.5,129.5 C 284.027,130.906 283.027,131.573 281.5,131.5C 281.973,130.094 282.973,129.427 284.5,129.5 Z"/></g>
<g><path style="opacity:1" fill="#f7aa18" d="M 365.5,118.5 C 367.919,127.449 366.919,136.115 362.5,144.5C 318.376,158.43 274.376,172.763 230.5,187.5C 230.5,187.167 230.5,186.833 230.5,186.5C 242.691,178.24 255.025,170.24 267.5,162.5C 300.151,152.172 332.818,141.839 365.5,131.5C 365.5,127.167 365.5,122.833 365.5,118.5 Z"/></g>
<g><path style="opacity:0.655" fill="#b28b57" d="M 460.5,130.5 C 458.898,132.074 456.898,132.741 454.5,132.5C 456.214,131.262 458.214,130.595 460.5,130.5 Z"/></g>
<g><path style="opacity:0.266" fill="#7c6b85" d="M 108.5,113.5 C 108.171,126.677 108.505,139.677 109.5,152.5C 109.44,153.043 109.107,153.376 108.5,153.5C 107.175,140.006 107.175,126.673 108.5,113.5 Z"/></g>
<g><path style="opacity:0.522" fill="#b29655" d="M 279.5,132.5 C 279.027,133.906 278.027,134.573 276.5,134.5C 276.973,133.094 277.973,132.427 279.5,132.5 Z"/></g>
<g><path style="opacity:0.706" fill="#ba8e51" d="M 454.5,132.5 C 452.162,134.04 449.495,134.706 446.5,134.5C 448.905,133.232 451.572,132.565 454.5,132.5 Z"/></g>
<g><path style="opacity:0.993" fill="#784790" d="M 246.5,124.5 C 246.714,126.144 246.38,127.644 245.5,129C 250.684,129.174 255.684,129.674 260.5,130.5C 254.795,134.859 248.795,138.859 242.5,142.5C 241.5,142.5 240.5,142.5 239.5,142.5C 239.5,141.5 239.5,140.5 239.5,139.5C 241.05,134.07 243.384,129.07 246.5,124.5 Z"/></g>
<g><path style="opacity:0.996" fill="#764192" d="M 378.5,120.5 C 379.477,123.287 379.81,126.287 379.5,129.5C 393.833,129.5 408.167,129.5 422.5,129.5C 408.322,135.342 393.988,141.008 379.5,146.5C 378.5,146.5 377.5,146.5 376.5,146.5C 376.833,143.167 377.167,139.833 377.5,136.5C 378.098,131.187 378.431,125.854 378.5,120.5 Z"/></g>
<g><path style="opacity:0.471" fill="#ab925a" d="M 274.5,135.5 C 274.027,136.906 273.027,137.573 271.5,137.5C 271.973,136.094 272.973,135.427 274.5,135.5 Z"/></g>
<g><path style="opacity:0.745" fill="#be8f4d" d="M 446.5,134.5 C 443.916,136.472 440.916,137.472 437.5,137.5C 440.215,135.928 443.215,134.928 446.5,134.5 Z"/></g>
<g><path style="opacity:0.576" fill="#b69851" d="M 271.5,137.5 C 271.027,138.906 270.027,139.573 268.5,139.5C 268.973,138.094 269.973,137.427 271.5,137.5 Z"/></g>
<g><path style="opacity:0.596" fill="#b48c56" d="M 433.5,138.5 C 430.916,140.472 427.916,141.472 424.5,141.5C 427.215,139.928 430.215,138.928 433.5,138.5 Z"/></g>
<g><path style="opacity:0.008" fill="#7b6f84" d="M 118.5,140.5 C 118.573,142.027 117.906,143.027 116.5,143.5C 116.427,141.973 117.094,140.973 118.5,140.5 Z"/></g>
<g><path style="opacity:0.545" fill="#b29a56" d="M 143.5,132.5 C 138.833,137.833 133.833,142.833 128.5,147.5C 132.5,141.5 137.5,136.5 143.5,132.5 Z"/></g>
<g><path style="opacity:0.404" fill="#a58f5f" d="M 266.5,140.5 C 266.027,141.906 265.027,142.573 263.5,142.5C 263.973,141.094 264.973,140.427 266.5,140.5 Z"/></g>
<g><path style="opacity:0.661" fill="#786089" d="M 239.5,139.5 C 239.5,140.5 239.5,141.5 239.5,142.5C 240.5,142.5 241.5,142.5 242.5,142.5C 240.877,143.779 239.21,145.113 237.5,146.5C 236.659,143.821 237.325,141.488 239.5,139.5 Z"/></g>
<g><path style="opacity:0.435" fill="#ab925a" d="M 263.5,142.5 C 263.027,143.906 262.027,144.573 260.5,144.5C 260.973,143.094 261.973,142.427 263.5,142.5 Z"/></g>
<g><path style="opacity:1" fill="#f7a518" d="M 362.5,144.5 C 361.201,149.764 358.868,154.431 355.5,158.5C 304.094,174.969 252.761,191.635 201.5,208.5C 210.628,200.768 220.294,193.768 230.5,187.5C 274.376,172.763 318.376,158.43 362.5,144.5 Z"/></g>
<g><path style="opacity:0.961" fill="#76598b" d="M 377.5,136.5 C 377.167,139.833 376.833,143.167 376.5,146.5C 377.5,146.5 378.5,146.5 379.5,146.5C 378.063,147.725 376.396,148.725 374.5,149.5C 374.167,149 373.833,148.5 373.5,148C 374.769,144.02 376.103,140.187 377.5,136.5 Z"/></g>
<g><path style="opacity:0.451" fill="#ab925a" d="M 260.5,144.5 C 260.027,145.906 259.027,146.573 257.5,146.5C 257.973,145.094 258.973,144.427 260.5,144.5 Z"/></g>
<g><path style="opacity:0.655" fill="#b88d53" d="M 418.5,143.5 C 416.383,145.655 413.716,146.655 410.5,146.5C 412.936,145.129 415.603,144.129 418.5,143.5 Z"/></g>
<g><path style="opacity:0.004" fill="#7c7283" d="M 114.5,145.5 C 114.573,147.027 113.906,148.027 112.5,148.5C 112.427,146.973 113.094,145.973 114.5,145.5 Z"/></g>
<g><path style="opacity:1" fill="#f8b716" d="M 222.5,147.5 C 220.616,153.598 217.949,159.265 214.5,164.5C 187.92,172.86 161.42,181.527 135,190.5C 134.617,189.944 134.117,189.611 133.5,189.5C 137.45,183.549 141.783,177.882 146.5,172.5C 171.617,163.614 196.95,155.28 222.5,147.5 Z"/></g>
<g><path style="opacity:0.427" fill="#ab925a" d="M 257.5,146.5 C 257.027,147.906 256.027,148.573 254.5,148.5C 254.973,147.094 255.973,146.427 257.5,146.5 Z"/></g>
<g><path style="opacity:0.745" fill="#b78d54" d="M 410.5,146.5 C 409.365,148.213 407.698,148.88 405.5,148.5C 406.93,147.463 408.597,146.796 410.5,146.5 Z"/></g>
<g><path style="opacity:1" fill="#fcdd86" d="M 166.5,149.5 C 159.833,157.167 153.167,164.833 146.5,172.5C 141.783,177.882 137.45,183.549 133.5,189.5C 132.728,190.694 131.728,191.694 130.5,192.5C 122.098,194.635 113.765,196.968 105.5,199.5C 107.576,194.349 109.91,189.349 112.5,184.5C 117.765,175.637 123.765,167.304 130.5,159.5C 142.331,156.446 153.997,152.779 165.5,148.5C 166.107,148.624 166.44,148.957 166.5,149.5 Z"/></g>
<g><path style="opacity:0.392" fill="#ae9359" d="M 254.5,148.5 C 253.738,150.262 252.404,151.262 250.5,151.5C 251.262,149.738 252.596,148.738 254.5,148.5 Z"/></g>
<g><path style="opacity:0.784" fill="#bb8e51" d="M 405.5,148.5 C 404.365,150.213 402.698,150.88 400.5,150.5C 401.93,149.463 403.597,148.796 405.5,148.5 Z"/></g>
<g><path style="opacity:0.565" fill="#b09957" d="M 126.5,149.5 C 126.262,151.404 125.262,152.738 123.5,153.5C 123.738,151.596 124.738,150.262 126.5,149.5 Z"/></g>
<g><path style="opacity:1" fill="#f28c22" d="M 488.5,150.5 C 466.732,160.587 445.399,171.587 424.5,183.5C 424.53,182.503 424.03,181.836 423,181.5C 365.563,200.4 308.063,219.067 250.5,237.5C 250.992,235.181 251.992,233.181 253.5,231.5C 254.906,231.027 255.573,230.027 255.5,228.5C 255.5,227.833 255.5,227.167 255.5,226.5C 256.167,226.5 256.5,226.167 256.5,225.5C 273.187,219.672 290.353,214.006 308,208.5C 308.765,208.57 309.265,208.903 309.5,209.5C 305.975,213.183 301.975,216.35 297.5,219C 296.04,219.811 295.707,220.645 296.5,221.5C 309.061,213.054 322.061,205.387 335.5,198.5C 386.119,182.683 436.619,166.35 487,149.5C 487.765,149.57 488.265,149.903 488.5,150.5 Z"/></g>
<g><path style="opacity:0.584" fill="#ba984f" d="M 250.5,151.5 C 250.027,152.906 249.027,153.573 247.5,153.5C 247.973,152.094 248.973,151.427 250.5,151.5 Z"/></g>
<g><path style="opacity:0.878" fill="#c59149" d="M 400.5,150.5 C 398.824,152.834 396.491,153.834 393.5,153.5C 395.509,151.935 397.843,150.935 400.5,150.5 Z"/></g>
<g><path style="opacity:1" fill="#f4991f" d="M 555.5,114.5 C 557.857,114.337 560.19,114.503 562.5,115C 507.235,133.144 451.901,150.978 396.5,168.5C 436.585,149.636 478.251,134.802 521.5,124C 455.161,133.389 393.494,155.556 336.5,190.5C 335.399,189.402 334.066,189.235 332.5,190C 251.294,217.236 169.96,243.736 88.5,269.5C 90.5968,264.311 92.9302,259.311 95.5,254.5C 117.273,247.97 138.939,240.97 160.5,233.5C 161.107,233.624 161.44,233.957 161.5,234.5C 158.371,238.131 155.037,241.631 151.5,245C 151.833,245.167 152.167,245.333 152.5,245.5C 159.35,239.915 166.35,234.582 173.5,229.5C 230.177,210.832 286.843,192.165 343.5,173.5C 344.183,173.863 344.85,174.196 345.5,174.5C 345.586,175.496 345.252,176.329 344.5,177C 345.094,177.464 345.761,177.631 346.5,177.5C 348.027,177.573 349.027,176.906 349.5,175.5C 349.842,174.662 350.508,174.328 351.5,174.5C 353.027,174.573 354.027,173.906 354.5,172.5C 356.181,170.992 358.181,169.992 360.5,169.5C 362.027,169.573 363.027,168.906 363.5,167.5C 372.997,161.883 382.997,157.217 393.5,153.5C 396.491,153.834 398.824,152.834 400.5,150.5C 402.698,150.88 404.365,150.213 405.5,148.5C 407.698,148.88 409.365,148.213 410.5,146.5C 413.716,146.655 416.383,145.655 418.5,143.5C 420.421,142.637 422.421,141.971 424.5,141.5C 427.916,141.472 430.916,140.472 433.5,138.5C 434.568,137.566 435.901,137.232 437.5,137.5C 440.916,137.472 443.916,136.472 446.5,134.5C 449.495,134.706 452.162,134.04 454.5,132.5C 456.898,132.741 458.898,132.074 460.5,130.5C 464.702,129.033 469.035,128.033 473.5,127.5C 476.781,127.58 479.781,126.913 482.5,125.5C 506.368,119.58 530.701,115.913 555.5,114.5 Z"/></g>
<g><path style="opacity:0.502" fill="#b89751" d="M 247.5,153.5 C 246.833,154.5 246.167,155.5 245.5,156.5C 244.833,156.5 244.167,156.5 243.5,156.5C 244.262,154.738 245.596,153.738 247.5,153.5 Z"/></g>
<g><path style="opacity:0.196" fill="#a09062" d="M 121.5,155.5 C 121.573,157.027 120.906,158.027 119.5,158.5C 119.427,156.973 120.094,155.973 121.5,155.5 Z"/></g>
<g><path style="opacity:1" fill="#f69f1a" d="M 355.5,158.5 C 353.165,164.514 349.831,169.848 345.5,174.5C 344.85,174.196 344.183,173.863 343.5,173.5C 286.843,192.165 230.177,210.832 173.5,229.5C 182.262,221.738 191.596,214.738 201.5,208.5C 252.761,191.635 304.094,174.969 355.5,158.5 Z"/></g>
<g><path style="opacity:0.49" fill="#b79652" d="M 240.5,158.5 C 239.738,160.262 238.404,161.262 236.5,161.5C 237.262,159.738 238.596,158.738 240.5,158.5 Z"/></g>
<g><path style="opacity:0.329" fill="#af9857" d="M 119.5,158.5 C 119.573,160.027 118.906,161.027 117.5,161.5C 117.427,159.973 118.094,158.973 119.5,158.5 Z"/></g>
<g><path style="opacity:0.671" fill="#bc9e4d" d="M 117.5,161.5 C 117.573,163.027 116.906,164.027 115.5,164.5C 115.427,162.973 116.094,161.973 117.5,161.5 Z"/></g>
<g><path style="opacity:0.494" fill="#aa895c" d="M 363.5,167.5 C 363.027,168.906 362.027,169.573 360.5,169.5C 360.973,168.094 361.973,167.427 363.5,167.5 Z"/></g>
<g><path style="opacity:0.976" fill="#cca643" d="M 115.5,164.5 C 114.702,166.966 113.369,168.966 111.5,170.5C 111.845,167.802 113.178,165.802 115.5,164.5 Z"/></g>
<g><path style="opacity:0.525" fill="#ba954f" d="M 224.5,170.5 C 223.738,172.262 222.404,173.262 220.5,173.5C 221.262,171.738 222.596,170.738 224.5,170.5 Z"/></g>
<g><path style="opacity:0.302" fill="#ae9758" d="M 111.5,170.5 C 111.573,172.027 110.906,173.027 109.5,173.5C 109.427,171.973 110.094,170.973 111.5,170.5 Z"/></g>
<g><path style="opacity:0.502" fill="#ad895a" d="M 354.5,172.5 C 354.027,173.906 353.027,174.573 351.5,174.5C 351.973,173.094 352.973,172.427 354.5,172.5 Z"/></g>
<g><path style="opacity:1" fill="#f7b017" d="M 214.5,164.5 C 212.109,170.949 209.442,177.282 206.5,183.5C 205.833,183.5 205.5,183.833 205.5,184.5C 176.41,192.707 147.41,202.04 118.5,212.5C 122.102,205.571 126.102,198.905 130.5,192.5C 131.728,191.694 132.728,190.694 133.5,189.5C 134.117,189.611 134.617,189.944 135,190.5C 161.42,181.527 187.92,172.86 214.5,164.5 Z"/></g>
<g><path style="opacity:1" fill="#f8ac17" d="M 269.5,150.5 C 251.252,162.423 233.586,175.09 216.5,188.5C 212.021,191.243 207.688,194.243 203.5,197.5C 172.126,206.398 140.793,216.398 109.5,227.5C 111.749,221.995 114.749,216.995 118.5,212.5C 147.41,202.04 176.41,192.707 205.5,184.5C 205.833,184.5 206.167,184.5 206.5,184.5C 208.404,184.262 209.738,183.262 210.5,181.5C 212.749,180.92 214.415,179.587 215.5,177.5C 217.749,176.92 219.415,175.587 220.5,173.5C 222.404,173.262 223.738,172.262 224.5,170.5C 227.929,166.738 231.929,163.738 236.5,161.5C 238.404,161.262 239.738,160.262 240.5,158.5C 240.973,157.094 241.973,156.427 243.5,156.5C 244.167,156.5 244.833,156.5 245.5,156.5C 253.084,154.472 260.584,152.139 268,149.5C 268.765,149.57 269.265,149.903 269.5,150.5 Z"/></g>
<g><path style="opacity:0.784" fill="#c29949" d="M 220.5,173.5 C 219.415,175.587 217.749,176.92 215.5,177.5C 216.585,175.413 218.251,174.08 220.5,173.5 Z"/></g>
<g><path style="opacity:0.537" fill="#b18956" d="M 349.5,175.5 C 349.027,176.906 348.027,177.573 346.5,177.5C 346.973,176.094 347.973,175.427 349.5,175.5 Z"/></g>
<g><path style="opacity:0.957" fill="#c4a14b" d="M 109.5,173.5 C 109.408,175.848 108.408,177.514 106.5,178.5C 106.75,176.326 107.75,174.659 109.5,173.5 Z"/></g>
<g><path style="opacity:0.078" fill="#a18663" d="M 343.5,177.5 C 343.5,178.167 343.833,178.5 344.5,178.5C 343.86,180.332 342.86,180.665 341.5,179.5C 341.855,178.478 342.522,177.811 343.5,177.5 Z"/></g>
<g><path style="opacity:0.808" fill="#c79a46" d="M 215.5,177.5 C 214.415,179.587 212.749,180.92 210.5,181.5C 211.585,179.413 213.251,178.08 215.5,177.5 Z"/></g>
<g><path style="opacity:1" fill="#f28622" d="M 424.5,183.5 C 414.536,189.819 404.536,196.153 394.5,202.5C 392.965,201.646 391.632,201.646 390.5,202.5C 341.844,218.163 293.178,233.83 244.5,249.5C 245.992,245.182 247.992,241.182 250.5,237.5C 308.063,219.067 365.563,200.4 423,181.5C 424.03,181.836 424.53,182.503 424.5,183.5 Z"/></g>
<g><path style="opacity:0.153" fill="#a18f62" d="M 105.5,180.5 C 105.443,181.609 105.11,182.609 104.5,183.5C 104.167,183.5 103.833,183.5 103.5,183.5C 103.427,181.973 104.094,180.973 105.5,180.5 Z"/></g>
<g><path style="opacity:0.514" fill="#b89451" d="M 210.5,181.5 C 209.738,183.262 208.404,184.262 206.5,184.5C 206.5,184.167 206.5,183.833 206.5,183.5C 207.605,182.4 208.938,181.733 210.5,181.5 Z"/></g>
<g><path style="opacity:0.999" fill="#35bcbc" d="M 446.5,184.5 C 448.478,195.785 449.145,207.452 448.5,219.5C 429.803,220.154 411.47,219.487 393.5,217.5C 402.913,209.948 412.913,203.115 423.5,197C 431.074,192.576 438.741,188.409 446.5,184.5 Z"/></g>
<g><path style="opacity:0.306" fill="#5f9197" d="M 446.5,184.5 C 447.209,183.596 448.209,183.263 449.5,183.5C 449.832,225.003 449.499,266.337 448.5,307.5C 448.5,303.833 448.5,300.167 448.5,296.5C 448.5,293.167 448.5,289.833 448.5,286.5C 448.5,283.5 448.5,280.5 448.5,277.5C 448.5,274.167 448.5,270.833 448.5,267.5C 448.5,264.167 448.5,260.833 448.5,257.5C 448.5,254.5 448.5,251.5 448.5,248.5C 448.5,245.5 448.5,242.5 448.5,239.5C 448.5,235.833 448.5,232.167 448.5,228.5C 448.5,225.5 448.5,222.5 448.5,219.5C 449.145,207.452 448.478,195.785 446.5,184.5 Z"/></g>
<g><path style="opacity:1" fill="#fbce85" d="M 230.5,186.5 C 230.5,186.833 230.5,187.167 230.5,187.5C 220.294,193.768 210.628,200.768 201.5,208.5C 191.596,214.738 182.262,221.738 173.5,229.5C 166.35,234.582 159.35,239.915 152.5,245.5C 152.167,245.333 151.833,245.167 151.5,245C 155.037,241.631 158.371,238.131 161.5,234.5C 167.924,229.287 173.924,223.62 179.5,217.5C 187.798,211.203 195.798,204.537 203.5,197.5C 207.688,194.243 212.021,191.243 216.5,188.5C 220.755,188.711 224.921,187.711 229,185.5C 229.765,185.57 230.265,185.903 230.5,186.5 Z"/></g>
<g><path style="opacity:1" fill="#f5921c" d="M 336.5,190.5 C 327.713,197.067 318.713,203.4 309.5,209.5C 309.265,208.903 308.765,208.57 308,208.5C 290.353,214.006 273.187,219.672 256.5,225.5C 255.833,225.5 255.5,225.833 255.5,226.5C 253.95,227.441 252.284,228.107 250.5,228.5C 248.585,228.216 246.919,228.549 245.5,229.5C 191.545,247.041 137.545,264.374 83.5,281.5C 84.7776,277.333 86.4443,273.333 88.5,269.5C 169.96,243.736 251.294,217.236 332.5,190C 334.066,189.235 335.399,189.402 336.5,190.5 Z"/></g>
<g><path style="opacity:1" fill="#f8a517" d="M 203.5,197.5 C 195.798,204.537 187.798,211.203 179.5,217.5C 179.265,216.903 178.765,216.57 178,216.5C 152.923,224.804 127.756,232.804 102.5,240.5C 104.243,236.016 106.243,231.683 108.5,227.5C 108.833,227.5 109.167,227.5 109.5,227.5C 140.793,216.398 172.126,206.398 203.5,197.5 Z"/></g>
<g><path style="opacity:0.998" fill="#c7824b" d="M 394.5,202.5 C 393.101,203.89 391.434,204.89 389.5,205.5C 390.11,204.609 390.443,203.609 390.5,202.5C 391.632,201.646 392.965,201.646 394.5,202.5 Z"/></g>
<g><path style="opacity:1" fill="#f28023" d="M 390.5,202.5 C 390.443,203.609 390.11,204.609 389.5,205.5C 381.807,211.853 373.807,217.853 365.5,223.5C 365.53,222.503 365.03,221.836 364,221.5C 322.709,235.322 281.376,248.989 240,262.5C 239.536,261.906 239.369,261.239 239.5,260.5C 242.654,257.585 244.32,253.918 244.5,249.5C 293.178,233.83 341.844,218.163 390.5,202.5 Z"/></g>
<g><path style="opacity:1" fill="#fcd688" d="M 130.5,192.5 C 126.102,198.905 122.102,205.571 118.5,212.5C 114.749,216.995 111.749,221.995 109.5,227.5C 109.167,227.5 108.833,227.5 108.5,227.5C 108.631,226.624 108.298,225.957 107.5,225.5C 102.469,227.75 97.4693,229.083 92.5,229.5C 93.1667,226.833 93.8333,224.167 94.5,221.5C 98.1667,214.167 101.833,206.833 105.5,199.5C 113.765,196.968 122.098,194.635 130.5,192.5 Z"/></g>
<g><path style="opacity:0.998" fill="#f1b024" d="M 103.5,183.5 C 103.833,183.5 104.167,183.5 104.5,183.5C 104.47,184.497 104.97,185.164 106,185.5C 107.667,184.833 109.333,184.167 111,183.5C 111.765,183.57 112.265,183.903 112.5,184.5C 109.91,189.349 107.576,194.349 105.5,199.5C 101.833,206.833 98.1667,214.167 94.5,221.5C 92.5,221.167 90.5,220.833 88.5,220.5C 89.1495,218.565 89.4828,216.565 89.5,214.5C 92.8275,203.515 97.4942,193.182 103.5,183.5 Z"/></g>
<g><path style="opacity:1" fill="#f7a019" d="M 179.5,217.5 C 173.924,223.62 167.924,229.287 161.5,234.5C 161.44,233.957 161.107,233.624 160.5,233.5C 138.939,240.97 117.273,247.97 95.5,254.5C 97.3255,249.516 99.6589,244.849 102.5,240.5C 127.756,232.804 152.923,224.804 178,216.5C 178.765,216.57 179.265,216.903 179.5,217.5 Z"/></g>
<g><path style="opacity:0.882" fill="#bd974f" d="M 89.5,214.5 C 89.4828,216.565 89.1495,218.565 88.5,220.5C 87.8333,220.833 87.1667,221.167 86.5,221.5C 86.9348,218.843 87.9348,216.509 89.5,214.5 Z"/></g>
<g><path style="opacity:0.999" fill="#31b7bc" d="M 393.5,217.5 C 411.47,219.487 429.803,220.154 448.5,219.5C 448.5,222.5 448.5,225.5 448.5,228.5C 425.831,228.667 403.164,228.5 380.5,228C 381.381,227.292 382.047,226.458 382.5,225.5C 385.601,222.067 389.268,219.4 393.5,217.5 Z"/></g>
<g><path style="opacity:1" fill="#fbce88" d="M 108.5,227.5 C 106.243,231.683 104.243,236.016 102.5,240.5C 99.6589,244.849 97.3255,249.516 95.5,254.5C 92.9302,259.311 90.5968,264.311 88.5,269.5C 86.4443,273.333 84.7776,277.333 83.5,281.5C 83.5,282.167 83.1667,282.5 82.5,282.5C 82.5654,282.062 82.3988,281.728 82,281.5C 80.063,284.108 78.2296,284.108 76.5,281.5C 78.8711,270.017 81.8711,258.683 85.5,247.5C 87.4609,241.272 89.7942,235.272 92.5,229.5C 97.4693,229.083 102.469,227.75 107.5,225.5C 108.298,225.957 108.631,226.624 108.5,227.5 Z"/></g>
<g><path style="opacity:0.998" fill="#c6884b" d="M 245.5,229.5 C 246.919,228.549 248.585,228.216 250.5,228.5C 249.101,229.89 247.434,230.89 245.5,231.5C 246.506,230.604 246.506,229.938 245.5,229.5 Z"/></g>
<g><path style="opacity:1" fill="#30b1bb" d="M 382.5,225.5 C 382.047,226.458 381.381,227.292 380.5,228C 403.164,228.5 425.831,228.667 448.5,228.5C 448.5,232.167 448.5,235.833 448.5,239.5C 421.165,239.667 393.831,239.5 366.5,239C 367.71,237.961 368.71,236.794 369.5,235.5C 373.258,231.408 377.591,228.074 382.5,225.5 Z"/></g>
<g><path style="opacity:1" fill="#f38c20" d="M 245.5,229.5 C 246.506,229.938 246.506,230.604 245.5,231.5C 234.87,238.487 224.203,245.487 213.5,252.5C 213.53,251.503 213.03,250.836 212,250.5C 167.551,265.307 123.051,279.974 78.5,294.5C 79.8333,290.5 81.1667,286.5 82.5,282.5C 83.1667,282.5 83.5,282.167 83.5,281.5C 137.545,264.374 191.545,247.041 245.5,229.5 Z"/></g>
<g><path style="opacity:0.999" fill="#f07925" d="M 365.5,223.5 C 359.858,228.137 354.191,232.803 348.5,237.5C 346.973,237.427 345.973,238.094 345.5,239.5C 345.5,240.167 345.167,240.5 344.5,240.5C 344.53,239.503 344.03,238.836 343,238.5C 306.739,250.198 270.572,262.198 234.5,274.5C 234.5,273.833 234.5,273.167 234.5,272.5C 235.655,268.203 237.321,264.203 239.5,260.5C 239.369,261.239 239.536,261.906 240,262.5C 281.376,248.989 322.709,235.322 364,221.5C 365.03,221.836 365.53,222.503 365.5,223.5 Z"/></g>
<g><path style="opacity:0.133" fill="#9f8266" d="M 255.5,228.5 C 255.573,230.027 254.906,231.027 253.5,231.5C 253.427,229.973 254.094,228.973 255.5,228.5 Z"/></g>
<g><path style="opacity:0.998" fill="#f1a522" d="M 88.5,220.5 C 90.5,220.833 92.5,221.167 94.5,221.5C 93.8333,224.167 93.1667,226.833 92.5,229.5C 89.7942,235.272 87.4609,241.272 85.5,247.5C 83.139,247.674 80.8056,248.007 78.5,248.5C 78.7373,249.791 78.404,250.791 77.5,251.5C 77.366,249.708 77.6993,248.042 78.5,246.5C 80.0739,244.898 80.7406,242.898 80.5,240.5C 81.731,233.905 83.731,227.571 86.5,221.5C 87.1667,221.167 87.8333,220.833 88.5,220.5 Z"/></g>
<g><path style="opacity:1" fill="#f17325" d="M 344.5,240.5 C 343.5,242.167 342.167,243.5 340.5,244.5C 338.973,244.427 337.973,245.094 337.5,246.5C 335.833,248.833 333.833,250.833 331.5,252.5C 298.211,263.135 264.878,273.802 231.5,284.5C 232.15,282.565 232.483,280.565 232.5,278.5C 232.5,278.167 232.5,277.833 232.5,277.5C 233.906,277.027 234.573,276.027 234.5,274.5C 270.572,262.198 306.739,250.198 343,238.5C 344.03,238.836 344.53,239.503 344.5,240.5 Z"/></g>
<g><path style="opacity:0.004" fill="#917d72" d="M 348.5,237.5 C 348.027,238.906 347.027,239.573 345.5,239.5C 345.973,238.094 346.973,237.427 348.5,237.5 Z"/></g>
<g><path style="opacity:0.999" fill="#2fabba" d="M 369.5,235.5 C 368.71,236.794 367.71,237.961 366.5,239C 393.831,239.5 421.165,239.667 448.5,239.5C 448.5,242.5 448.5,245.5 448.5,248.5C 417.498,248.667 386.498,248.5 355.5,248C 357.041,246.629 358.375,245.129 359.5,243.5C 362.46,240.355 365.793,237.688 369.5,235.5 Z"/></g>
<g><path style="opacity:0.616" fill="#ae8d59" d="M 80.5,240.5 C 80.7406,242.898 80.0739,244.898 78.5,246.5C 78.595,244.214 79.2616,242.214 80.5,240.5 Z"/></g>
<g><path style="opacity:0.004" fill="#917d72" d="M 340.5,244.5 C 340.027,245.906 339.027,246.573 337.5,246.5C 337.973,245.094 338.973,244.427 340.5,244.5 Z"/></g>
<g><path style="opacity:1" fill="#2fa5b8" d="M 359.5,243.5 C 358.375,245.129 357.041,246.629 355.5,248C 386.498,248.5 417.498,248.667 448.5,248.5C 448.5,251.5 448.5,254.5 448.5,257.5C 413.663,257.832 378.996,257.498 344.5,256.5C 348.931,251.46 353.931,247.127 359.5,243.5 Z"/></g>
<g><path style="opacity:1" fill="#f38621" d="M 213.5,252.5 C 211.14,254.853 208.473,256.853 205.5,258.5C 203.973,258.427 202.973,259.094 202.5,260.5C 199.48,263.516 196.146,266.183 192.5,268.5C 191.85,268.196 191.183,267.863 190.5,267.5C 151.985,280.783 113.319,293.45 74.5,305.5C 75.5578,301.721 76.8911,298.054 78.5,294.5C 123.051,279.974 167.551,265.307 212,250.5C 213.03,250.836 213.53,251.503 213.5,252.5 Z"/></g>
<g><path style="opacity:0.999" fill="#ed6d2b" d="M 331.5,252.5 C 330.5,254.167 329.167,255.5 327.5,256.5C 325.596,256.738 324.262,257.738 323.5,259.5C 316.799,267.202 309.466,274.202 301.5,280.5C 299.973,280.427 298.973,281.094 298.5,282.5C 297.833,283.833 296.833,284.833 295.5,285.5C 293.973,285.427 292.973,286.094 292.5,287.5C 281.118,298.028 268.451,306.862 254.5,314C 248.048,316.782 241.715,316.949 235.5,314.5C 235.027,313.094 234.027,312.427 232.5,312.5C 230.827,311.657 229.66,310.324 229,308.5C 227.036,300.341 227.536,292.341 230.5,284.5C 230.833,284.5 231.167,284.5 231.5,284.5C 264.878,273.802 298.211,263.135 331.5,252.5 Z"/></g>
<g><path style="opacity:0.635" fill="#af8b58" d="M 77.5,251.5 C 77.7406,253.898 77.0739,255.898 75.5,257.5C 75.595,255.214 76.2616,253.214 77.5,251.5 Z"/></g>
<g><path style="opacity:0.951" fill="#ca8046" d="M 244.5,249.5 C 244.32,253.918 242.654,257.585 239.5,260.5C 240.382,256.407 242.049,252.74 244.5,249.5 Z"/></g>
<g><path style="opacity:0.004" fill="#917c72" d="M 327.5,256.5 C 326.738,258.262 325.404,259.262 323.5,259.5C 324.262,257.738 325.596,256.738 327.5,256.5 Z"/></g>
<g><path style="opacity:1" fill="#2e9fb7" d="M 344.5,256.5 C 378.996,257.498 413.663,257.832 448.5,257.5C 448.5,260.833 448.5,264.167 448.5,267.5C 410.832,267.667 373.165,267.5 335.5,267C 334.944,266.617 334.611,266.117 334.5,265.5C 337.211,261.788 340.544,258.788 344.5,256.5 Z"/></g>
<g><path style="opacity:0.004" fill="#918071" d="M 205.5,258.5 C 205.027,259.906 204.027,260.573 202.5,260.5C 202.973,259.094 203.973,258.427 205.5,258.5 Z"/></g>
<g><path style="opacity:0.999" fill="#ec972a" d="M 85.5,247.5 C 81.8711,258.683 78.8711,270.017 76.5,281.5C 76.2041,283.403 75.5375,285.07 74.5,286.5C 73.7494,285.427 72.7494,285.26 71.5,286C 70.9473,287.878 69.9473,289.378 68.5,290.5C 70.1991,279.336 72.5324,268.336 75.5,257.5C 77.0739,255.898 77.7406,253.898 77.5,251.5C 78.404,250.791 78.7373,249.791 78.5,248.5C 80.8056,248.007 83.139,247.674 85.5,247.5 Z"/></g>
<g><path style="opacity:1" fill="#2d98b6" d="M 334.5,265.5 C 334.611,266.117 334.944,266.617 335.5,267C 373.165,267.5 410.832,267.667 448.5,267.5C 448.5,270.833 448.5,274.167 448.5,277.5C 406.663,277.832 364.997,277.499 323.5,276.5C 326.833,272.5 330.5,268.833 334.5,265.5 Z"/></g>
<g><path style="opacity:1" fill="#f17f25" d="M 192.5,268.5 C 188.817,272.18 184.817,275.514 180.5,278.5C 178.973,278.427 177.973,279.094 177.5,280.5C 176.167,282.5 174.5,284.167 172.5,285.5C 170.973,285.427 169.973,286.094 169.5,287.5C 167.5,290.167 165.167,292.5 162.5,294.5C 162.631,293.624 162.298,292.957 161.5,292.5C 130.74,303.273 99.7399,313.273 68.5,322.5C 68.6567,321.127 68.49,319.793 68,318.5C 65.1531,321.53 63.9865,325.197 64.5,329.5C 64.7845,331.415 64.4511,333.081 63.5,334.5C 64.0184,319.688 65.685,305.021 68.5,290.5C 69.9473,289.378 70.9473,287.878 71.5,286C 72.7494,285.26 73.7494,285.427 74.5,286.5C 73.0946,296.529 71.428,306.529 69.5,316.5C 69.6667,317.5 69.8333,318.5 70,319.5C 71.2091,314.707 72.7091,310.04 74.5,305.5C 113.319,293.45 151.985,280.783 190.5,267.5C 191.183,267.863 191.85,268.196 192.5,268.5 Z"/></g>
<g><path style="opacity:0.706" fill="#b37b59" d="M 234.5,272.5 C 234.5,273.167 234.5,273.833 234.5,274.5C 234.573,276.027 233.906,277.027 232.5,277.5C 232.796,275.597 233.463,273.93 234.5,272.5 Z"/></g>
<g><path style="opacity:0.004" fill="#917f72" d="M 180.5,278.5 C 180.027,279.906 179.027,280.573 177.5,280.5C 177.973,279.094 178.973,278.427 180.5,278.5 Z"/></g>
<g><path style="opacity:0.998" fill="#3b91af" d="M 216.5,305.5 C 216.167,305.5 215.833,305.5 215.5,305.5C 215.476,299.143 215.81,292.81 216.5,286.5C 207.749,286.803 199.082,286.47 190.5,285.5C 201.599,275.075 213.599,265.742 226.5,257.5C 226.833,258 227.167,258.5 227.5,259C 220.446,273.717 216.779,289.217 216.5,305.5 Z"/></g>
<g><path style="opacity:1" fill="#2c92b5" d="M 323.5,276.5 C 364.997,277.499 406.663,277.832 448.5,277.5C 448.5,280.5 448.5,283.5 448.5,286.5C 403.428,286.828 358.428,286.494 313.5,285.5C 316.231,281.766 319.564,278.766 323.5,276.5 Z"/></g>
<g><path style="opacity:1" fill="#f9c088" d="M 76.5,281.5 C 78.2296,284.108 80.063,284.108 82,281.5C 82.3988,281.728 82.5654,282.062 82.5,282.5C 81.1667,286.5 79.8333,290.5 78.5,294.5C 76.8911,298.054 75.5578,301.721 74.5,305.5C 72.7091,310.04 71.2091,314.707 70,319.5C 69.8333,318.5 69.6667,317.5 69.5,316.5C 71.428,306.529 73.0946,296.529 74.5,286.5C 75.5375,285.07 76.2041,283.403 76.5,281.5 Z"/></g>
<g><path style="opacity:0.675" fill="#af7a5b" d="M 232.5,278.5 C 232.483,280.565 232.15,282.565 231.5,284.5C 231.167,284.5 230.833,284.5 230.5,284.5C 230.595,282.214 231.262,280.214 232.5,278.5 Z"/></g>
<g><path style="opacity:0.004" fill="#917c72" d="M 301.5,280.5 C 301.027,281.906 300.027,282.573 298.5,282.5C 298.973,281.094 299.973,280.427 301.5,280.5 Z"/></g>
<g><path style="opacity:0.004" fill="#917e71" d="M 172.5,285.5 C 172.027,286.906 171.027,287.573 169.5,287.5C 169.973,286.094 170.973,285.427 172.5,285.5 Z"/></g>
<g><path style="opacity:0.004" fill="#917c72" d="M 295.5,285.5 C 295.027,286.906 294.027,287.573 292.5,287.5C 292.973,286.094 293.973,285.427 295.5,285.5 Z"/></g>
<g><path style="opacity:1" fill="#2c8bb3" d="M 313.5,285.5 C 358.428,286.494 403.428,286.828 448.5,286.5C 448.5,289.833 448.5,293.167 448.5,296.5C 398.989,296.484 349.655,296.484 300.5,296.5C 304.534,292.464 308.868,288.798 313.5,285.5 Z"/></g>
<g><path style="opacity:0.999" fill="#f17824" d="M 162.5,294.5 C 161.833,295.833 160.833,296.833 159.5,297.5C 156.911,298.419 154.911,300.086 153.5,302.5C 153.5,303.167 153.167,303.5 152.5,303.5C 152.53,302.503 152.03,301.836 151,301.5C 122.281,311.351 93.4479,320.685 64.5,329.5C 63.9865,325.197 65.1531,321.53 68,318.5C 68.49,319.793 68.6567,321.127 68.5,322.5C 99.7399,313.273 130.74,303.273 161.5,292.5C 162.298,292.957 162.631,293.624 162.5,294.5 Z"/></g>
<g><path style="opacity:0.999" fill="#2f87b1" d="M 190.5,285.5 C 199.082,286.47 207.749,286.803 216.5,286.5C 215.81,292.81 215.476,299.143 215.5,305.5C 200.255,305.824 185.089,305.491 170,304.5C 168.223,306.79 166.056,308.457 163.5,309.5C 166.296,306.203 169.296,303.036 172.5,300C 178.104,294.551 184.104,289.717 190.5,285.5 Z"/></g>
<g><path style="opacity:1" fill="#2c86b1" d="M 448.5,296.5 C 448.5,300.167 448.5,303.833 448.5,307.5C 448.802,310.059 448.468,312.393 447.5,314.5C 447.5,311.5 447.5,308.5 447.5,305.5C 394.832,305.333 342.166,305.5 289.5,306C 288.756,307.039 287.756,307.539 286.5,307.5C 290.587,303.078 295.254,299.411 300.5,296.5C 349.655,296.484 398.989,296.484 448.5,296.5 Z"/></g>
<g><path style="opacity:0.004" fill="#917e72" d="M 159.5,297.5 C 158.089,299.914 156.089,301.581 153.5,302.5C 154.911,300.086 156.911,298.419 159.5,297.5 Z"/></g>
<g><path style="opacity:1" fill="#f27325" d="M 152.5,303.5 C 152.5,304.167 152.167,304.5 151.5,304.5C 148.757,306.239 146.757,308.573 145.5,311.5C 144.833,312.833 143.833,313.833 142.5,314.5C 116.294,323.012 89.9602,331.346 63.5,339.5C 63.5,337.833 63.5,336.167 63.5,334.5C 64.4511,333.081 64.7845,331.415 64.5,329.5C 93.4479,320.685 122.281,311.351 151,301.5C 152.03,301.836 152.53,302.503 152.5,303.5 Z"/></g>
<g><path style="opacity:1" fill="#2e7faf" d="M 215.5,305.5 C 215.833,305.5 216.167,305.5 216.5,305.5C 217.445,309.337 218.778,313.004 220.5,316.5C 199.906,315.346 179.24,315.179 158.5,316C 157.756,317.039 156.756,317.539 155.5,317.5C 157.833,314.5 160.5,311.833 163.5,309.5C 166.056,308.457 168.223,306.79 170,304.5C 185.089,305.491 200.255,305.824 215.5,305.5 Z"/></g>
<g><path style="opacity:1" fill="#2c7fb0" d="M 447.5,314.5 C 447.768,316.099 447.434,317.432 446.5,318.5C 446.5,317.5 446.5,316.5 446.5,315.5C 388.792,315.175 331.125,315.508 273.5,316.5C 277.553,313.117 281.886,310.117 286.5,307.5C 287.756,307.539 288.756,307.039 289.5,306C 342.166,305.5 394.832,305.333 447.5,305.5C 447.5,308.5 447.5,311.5 447.5,314.5 Z"/></g>
<g><path style="opacity:0.008" fill="#927d71" d="M 151.5,304.5 C 150.243,307.427 148.243,309.761 145.5,311.5C 146.757,308.573 148.757,306.239 151.5,304.5 Z"/></g>
<g><path style="opacity:0.435" fill="#bb7552" d="M 232.5,312.5 C 234.027,312.427 235.027,313.094 235.5,314.5C 233.973,314.573 232.973,313.906 232.5,312.5 Z"/></g>
<g><path style="opacity:0.999" fill="#ee6d2a" d="M 142.5,314.5 C 140.5,317.167 138.167,319.5 135.5,321.5C 134.094,321.973 133.427,322.973 133.5,324.5C 132.5,326.167 131.167,327.5 129.5,328.5C 128.094,328.973 127.427,329.973 127.5,331.5C 126.833,332.833 125.833,333.833 124.5,334.5C 123.094,334.973 122.427,335.973 122.5,337.5C 122.167,338.5 121.5,339.167 120.5,339.5C 119.094,339.973 118.427,340.973 118.5,342.5C 116.183,346.146 113.516,349.48 110.5,352.5C 109.094,352.973 108.427,353.973 108.5,355.5C 103.011,362.413 96.0113,367.079 87.5,369.5C 82.1301,369.608 76.7968,369.275 71.5,368.5C 69.785,366.118 67.785,364.118 65.5,362.5C 64.0735,360.852 63.2401,358.852 63,356.5C 62.1782,348.988 62.3448,341.655 63.5,334.5C 63.5,336.167 63.5,337.833 63.5,339.5C 89.9602,331.346 116.294,323.012 142.5,314.5 Z"/></g>
<g><path style="opacity:1" fill="#2c79af" d="M 220.5,316.5 C 223.211,320.212 226.544,323.212 230.5,325.5C 203.5,325.5 176.5,325.5 149.5,325.5C 151.909,323.098 153.909,320.431 155.5,317.5C 156.756,317.539 157.756,317.039 158.5,316C 179.24,315.179 199.906,315.346 220.5,316.5 Z"/></g>
<g><path style="opacity:1" fill="#2c79af" d="M 446.5,318.5 C 446.277,322.162 445.277,325.495 443.5,328.5C 443.5,327.5 443.5,326.5 443.5,325.5C 379.815,325.185 316.148,325.518 252.5,326.5C 259.573,323.465 266.573,320.132 273.5,316.5C 331.125,315.508 388.792,315.175 446.5,315.5C 446.5,316.5 446.5,317.5 446.5,318.5 Z"/></g>
<g><path style="opacity:0.004" fill="#967c6e" d="M 135.5,321.5 C 135.573,323.027 134.906,324.027 133.5,324.5C 133.427,322.973 134.094,321.973 135.5,321.5 Z"/></g>
<g><path style="opacity:0.396" fill="#617c91" d="M 155.5,317.5 C 153.909,320.431 151.909,323.098 149.5,325.5C 148.833,325.833 148.167,326.167 147.5,326.5C 149.43,322.9 152.097,319.9 155.5,317.5 Z"/></g>
<g><path style="opacity:0.004" fill="#957b6f" d="M 129.5,328.5 C 129.573,330.027 128.906,331.027 127.5,331.5C 127.427,329.973 128.094,328.973 129.5,328.5 Z"/></g>
<g><path style="opacity:1" fill="#2b72ad" d="M 149.5,325.5 C 176.5,325.5 203.5,325.5 230.5,325.5C 237.743,327.691 245.076,328.024 252.5,326.5C 316.148,325.518 379.815,325.185 443.5,325.5C 443.5,326.5 443.5,327.5 443.5,328.5C 442.674,331.485 441.341,334.151 439.5,336.5C 390.004,335.167 340.171,334.5 290,334.5C 239.763,334.502 189.597,334.836 139.5,335.5C 141.43,331.9 144.097,328.9 147.5,326.5C 148.167,326.167 148.833,325.833 149.5,325.5 Z"/></g>
<g><path style="opacity:1" fill="#2a6dac" d="M 439.5,336.5 C 438.502,340.505 436.502,343.839 433.5,346.5C 433.5,345.5 433.5,344.5 433.5,343.5C 333.499,343.333 233.499,343.5 133.5,344C 132.627,345.045 131.627,345.878 130.5,346.5C 132.785,342.273 135.785,338.607 139.5,335.5C 189.597,334.836 239.763,334.502 290,334.5C 340.171,334.5 390.004,335.167 439.5,336.5 Z"/></g>
<g><path style="opacity:0.004" fill="#987b6d" d="M 124.5,334.5 C 124.573,336.027 123.906,337.027 122.5,337.5C 122.427,335.973 123.094,334.973 124.5,334.5 Z"/></g>
<g><path style="opacity:0.004" fill="#987b6c" d="M 120.5,339.5 C 120.573,341.027 119.906,342.027 118.5,342.5C 118.427,340.973 119.094,339.973 120.5,339.5 Z"/></g>
<g><path style="opacity:1" fill="#2a66ab" d="M 433.5,346.5 C 432.557,349.109 430.89,351.109 428.5,352.5C 427.167,353.5 425.833,354.5 424.5,355.5C 327.332,354.168 229.999,354.168 132.5,355.5C 133.524,356.852 134.524,358.185 135.5,359.5C 131.543,357.543 128.543,354.543 126.5,350.5C 127.521,348.812 128.855,347.479 130.5,346.5C 131.627,345.878 132.627,345.045 133.5,344C 233.499,343.5 333.499,343.333 433.5,343.5C 433.5,344.5 433.5,345.5 433.5,346.5 Z"/></g>
<g><path style="opacity:0.004" fill="#947c6f" d="M 110.5,352.5 C 110.573,354.027 109.906,355.027 108.5,355.5C 108.427,353.973 109.094,352.973 110.5,352.5 Z"/></g>
<g><path style="opacity:1" fill="#2960aa" d="M 424.5,355.5 C 423.167,357.167 421.833,358.833 420.5,360.5C 419.109,362.89 417.109,364.557 414.5,365.5C 369.505,364.167 324.172,363.5 278.5,363.5C 233.167,363.667 187.833,363.833 142.5,364C 143.71,365.039 144.71,366.206 145.5,367.5C 141.428,365.792 138.095,363.126 135.5,359.5C 134.524,358.185 133.524,356.852 132.5,355.5C 229.999,354.168 327.332,354.168 424.5,355.5 Z"/></g>
<g><path style="opacity:0.012" fill="#727a86" d="M 428.5,352.5 C 426.833,356.167 424.167,358.833 420.5,360.5C 421.833,358.833 423.167,357.167 424.5,355.5C 425.833,354.5 427.167,353.5 428.5,352.5 Z"/></g>
<g><path style="opacity:0.875" fill="#b2775a" d="M 65.5,362.5 C 67.785,364.118 69.785,366.118 71.5,368.5C 68.5222,367.522 66.5222,365.522 65.5,362.5 Z"/></g>
<g><path style="opacity:0.999" fill="#295aa8" d="M 414.5,365.5 C 406.232,371.965 396.898,376.299 386.5,378.5C 382.692,378.163 379.026,378.663 375.5,380C 310.501,380.5 245.501,380.667 180.5,380.5C 178.05,380.702 175.717,380.369 173.5,379.5C 171.562,377.837 169.228,377.171 166.5,377.5C 159.97,375.899 153.97,373.233 148.5,369.5C 148.027,368.094 147.027,367.427 145.5,367.5C 144.71,366.206 143.71,365.039 142.5,364C 187.833,363.833 233.167,363.667 278.5,363.5C 324.172,363.5 369.505,364.167 414.5,365.5 Z"/></g>
<g><path style="opacity:0.169" fill="#6a7589" d="M 145.5,367.5 C 147.027,367.427 148.027,368.094 148.5,369.5C 146.973,369.573 145.973,368.906 145.5,367.5 Z"/></g>
<g><path style="opacity:0.713" fill="#bc7653" d="M 71.5,368.5 C 76.7968,369.275 82.1301,369.608 87.5,369.5C 82.0201,372.136 76.6868,371.803 71.5,368.5 Z"/></g>
<g><path style="opacity:0.741" fill="#5c6e91" d="M 166.5,377.5 C 169.228,377.171 171.562,377.837 173.5,379.5C 170.933,379.279 168.599,378.612 166.5,377.5 Z"/></g>
<g><path style="opacity:0.302" fill="#586e92" d="M 386.5,378.5 C 383.423,379.856 380.09,380.689 376.5,381C 310.999,381.832 245.665,381.665 180.5,380.5C 245.501,380.667 310.501,380.5 375.5,380C 379.026,378.663 382.692,378.163 386.5,378.5 Z"/></g>
</svg>
